<mxfile host="app.diagrams.net" modified="2020-09-25T06:29:13.311Z" agent="5.0 (Windows NT 10.0; Win64; x64) AppleWebKit/537.36 (KHTML, like Gecko) Chrome/85.0.4183.102 Safari/537.36" etag="wXhB-9L7SJiFfauW_RQO" version="13.6.6" type="github" pages="6">
  <diagram id="rDk0wKhwYl1qWFm8uVG5" name="Page-1">
    <mxGraphModel dx="706" dy="556" grid="1" gridSize="10" guides="1" tooltips="1" connect="1" arrows="1" fold="1" page="1" pageScale="1" pageWidth="850" pageHeight="1100" math="0" shadow="0">
      <root>
        <mxCell id="0" />
        <mxCell id="1" parent="0" />
        <mxCell id="wIX2fMuR7Q2BnAWhRWcV-15" style="edgeStyle=orthogonalEdgeStyle;rounded=0;orthogonalLoop=1;jettySize=auto;html=1;exitX=0.5;exitY=1;exitDx=0;exitDy=0;fontSize=20;" edge="1" parent="1" source="wIX2fMuR7Q2BnAWhRWcV-1" target="wIX2fMuR7Q2BnAWhRWcV-9">
          <mxGeometry relative="1" as="geometry" />
        </mxCell>
        <mxCell id="wIX2fMuR7Q2BnAWhRWcV-1" value="&lt;b&gt;System Libraries&lt;/b&gt;&lt;br&gt;I/O Objects&lt;br&gt;Standard Library&lt;br&gt;Time&lt;br&gt;File I/O&lt;br&gt;I/O Format&lt;br&gt;String Objects&lt;br&gt;Math Functions&lt;br&gt;Standard Namespace&lt;br&gt;" style="rounded=1;whiteSpace=wrap;html=1;" vertex="1" parent="1">
          <mxGeometry x="110" y="200" width="180" height="140" as="geometry" />
        </mxCell>
        <mxCell id="wIX2fMuR7Q2BnAWhRWcV-14" style="edgeStyle=orthogonalEdgeStyle;rounded=0;orthogonalLoop=1;jettySize=auto;html=1;exitX=0.5;exitY=1;exitDx=0;exitDy=0;fontSize=20;" edge="1" parent="1" source="wIX2fMuR7Q2BnAWhRWcV-2" target="wIX2fMuR7Q2BnAWhRWcV-1">
          <mxGeometry relative="1" as="geometry" />
        </mxCell>
        <mxCell id="wIX2fMuR7Q2BnAWhRWcV-2" value="&lt;div&gt;&lt;b&gt;Author&lt;/b&gt;: Dr. Mark E. Lehr&lt;/div&gt;&lt;div&gt;&lt;b&gt;Created on&lt;/b&gt;; April 23rd, 2018, 11:42 AM&lt;/div&gt;&lt;div&gt;&lt;b&gt;Purpose&lt;/b&gt;: Project 2 - Simulate a Craps Game.&lt;/div&gt;&lt;div&gt;&lt;span&gt;Implement Arrays&lt;/span&gt;&lt;/div&gt;" style="rounded=1;whiteSpace=wrap;html=1;align=center;" vertex="1" parent="1">
          <mxGeometry x="75" y="80" width="250" height="90" as="geometry" />
        </mxCell>
        <mxCell id="wIX2fMuR7Q2BnAWhRWcV-6" value="Flowchart Lab CSC-17A - 49287&lt;font style=&quot;font-size: 20px;&quot;&gt;&amp;nbsp;&lt;/font&gt;" style="text;html=1;align=center;verticalAlign=middle;resizable=0;points=[];autosize=1;strokeWidth=1;fontSize=20;" vertex="1" parent="1">
          <mxGeometry x="240" width="310" height="30" as="geometry" />
        </mxCell>
        <mxCell id="wIX2fMuR7Q2BnAWhRWcV-16" style="edgeStyle=orthogonalEdgeStyle;rounded=0;orthogonalLoop=1;jettySize=auto;html=1;exitX=0.5;exitY=1;exitDx=0;exitDy=0;fontSize=20;" edge="1" parent="1" source="wIX2fMuR7Q2BnAWhRWcV-9" target="wIX2fMuR7Q2BnAWhRWcV-10">
          <mxGeometry relative="1" as="geometry" />
        </mxCell>
        <mxCell id="wIX2fMuR7Q2BnAWhRWcV-9" value="&lt;b&gt;User Libraries&lt;/b&gt;&lt;br&gt;None" style="rounded=1;whiteSpace=wrap;html=1;" vertex="1" parent="1">
          <mxGeometry x="130" y="370" width="140" height="50" as="geometry" />
        </mxCell>
        <mxCell id="wIX2fMuR7Q2BnAWhRWcV-17" style="edgeStyle=orthogonalEdgeStyle;rounded=0;orthogonalLoop=1;jettySize=auto;html=1;exitX=0.5;exitY=1;exitDx=0;exitDy=0;entryX=0.5;entryY=0;entryDx=0;entryDy=0;fontSize=20;" edge="1" parent="1" source="wIX2fMuR7Q2BnAWhRWcV-10" target="wIX2fMuR7Q2BnAWhRWcV-11">
          <mxGeometry relative="1" as="geometry" />
        </mxCell>
        <mxCell id="wIX2fMuR7Q2BnAWhRWcV-10" value="&lt;b&gt;Global Constants&lt;/b&gt;&lt;br&gt;PERCENT&lt;br&gt;" style="rounded=1;whiteSpace=wrap;html=1;" vertex="1" parent="1">
          <mxGeometry x="130" y="460" width="140" height="60" as="geometry" />
        </mxCell>
        <mxCell id="wIX2fMuR7Q2BnAWhRWcV-22" style="edgeStyle=orthogonalEdgeStyle;rounded=0;orthogonalLoop=1;jettySize=auto;html=1;exitX=0.5;exitY=1;exitDx=0;exitDy=0;entryX=0;entryY=0.5;entryDx=0;entryDy=0;fontSize=12;" edge="1" parent="1" source="wIX2fMuR7Q2BnAWhRWcV-11" target="wIX2fMuR7Q2BnAWhRWcV-18">
          <mxGeometry relative="1" as="geometry" />
        </mxCell>
        <mxCell id="wIX2fMuR7Q2BnAWhRWcV-11" value="&lt;b&gt;Function Prototypes&lt;/b&gt;&lt;br&gt;rollDie&lt;br&gt;fileDsp&lt;br&gt;scrnDsp&lt;br&gt;crpGame" style="rounded=1;whiteSpace=wrap;html=1;" vertex="1" parent="1">
          <mxGeometry x="130" y="560" width="140" height="80" as="geometry" />
        </mxCell>
        <mxCell id="wIX2fMuR7Q2BnAWhRWcV-12" style="edgeStyle=orthogonalEdgeStyle;rounded=0;orthogonalLoop=1;jettySize=auto;html=1;exitX=0.5;exitY=1;exitDx=0;exitDy=0;fontSize=20;" edge="1" parent="1" source="wIX2fMuR7Q2BnAWhRWcV-2" target="wIX2fMuR7Q2BnAWhRWcV-2">
          <mxGeometry relative="1" as="geometry" />
        </mxCell>
        <mxCell id="wIX2fMuR7Q2BnAWhRWcV-13" style="edgeStyle=orthogonalEdgeStyle;rounded=0;orthogonalLoop=1;jettySize=auto;html=1;exitX=0.5;exitY=1;exitDx=0;exitDy=0;fontSize=20;" edge="1" parent="1" source="wIX2fMuR7Q2BnAWhRWcV-2" target="wIX2fMuR7Q2BnAWhRWcV-2">
          <mxGeometry relative="1" as="geometry" />
        </mxCell>
        <mxCell id="wIX2fMuR7Q2BnAWhRWcV-23" style="edgeStyle=orthogonalEdgeStyle;rounded=0;orthogonalLoop=1;jettySize=auto;html=1;exitX=0.5;exitY=1;exitDx=0;exitDy=0;entryX=0.5;entryY=0;entryDx=0;entryDy=0;fontSize=12;" edge="1" parent="1" source="wIX2fMuR7Q2BnAWhRWcV-18" target="wIX2fMuR7Q2BnAWhRWcV-20">
          <mxGeometry relative="1" as="geometry" />
        </mxCell>
        <mxCell id="wIX2fMuR7Q2BnAWhRWcV-18" value="Main" style="ellipse;whiteSpace=wrap;html=1;strokeWidth=1;fontSize=12;" vertex="1" parent="1">
          <mxGeometry x="540" y="90" width="100" height="50" as="geometry" />
        </mxCell>
        <mxCell id="wIX2fMuR7Q2BnAWhRWcV-27" style="edgeStyle=orthogonalEdgeStyle;rounded=0;orthogonalLoop=1;jettySize=auto;html=1;exitX=0.5;exitY=1;exitDx=0;exitDy=0;fontSize=12;" edge="1" parent="1" source="wIX2fMuR7Q2BnAWhRWcV-19" target="wIX2fMuR7Q2BnAWhRWcV-26">
          <mxGeometry relative="1" as="geometry" />
        </mxCell>
        <mxCell id="wIX2fMuR7Q2BnAWhRWcV-19" value="&lt;b&gt;Declare variables&lt;/b&gt;&lt;br&gt;ifstream in&amp;nbsp;&lt;br&gt;ofstream out&amp;nbsp;&lt;br&gt;nGames&lt;br&gt;mxThrw=0&lt;br&gt;numThrw=0&lt;br&gt;lmGames=100000000&lt;br&gt;SIZE=13&lt;br&gt;wins[SIZE]&lt;br&gt;losses[SIZE]" style="rounded=1;whiteSpace=wrap;html=1;strokeWidth=1;fontSize=12;" vertex="1" parent="1">
          <mxGeometry x="525" y="240" width="130" height="170" as="geometry" />
        </mxCell>
        <mxCell id="wIX2fMuR7Q2BnAWhRWcV-24" style="edgeStyle=orthogonalEdgeStyle;rounded=0;orthogonalLoop=1;jettySize=auto;html=1;exitX=0.5;exitY=1;exitDx=0;exitDy=0;fontSize=12;" edge="1" parent="1" source="wIX2fMuR7Q2BnAWhRWcV-20" target="wIX2fMuR7Q2BnAWhRWcV-19">
          <mxGeometry relative="1" as="geometry" />
        </mxCell>
        <mxCell id="wIX2fMuR7Q2BnAWhRWcV-20" value="&lt;b&gt;Set random number&lt;/b&gt; seed" style="rounded=1;whiteSpace=wrap;html=1;strokeWidth=1;fontSize=12;" vertex="1" parent="1">
          <mxGeometry x="530" y="160" width="120" height="50" as="geometry" />
        </mxCell>
        <mxCell id="wIX2fMuR7Q2BnAWhRWcV-34" style="edgeStyle=orthogonalEdgeStyle;rounded=0;orthogonalLoop=1;jettySize=auto;html=1;exitX=0.5;exitY=1;exitDx=0;exitDy=0;fontSize=12;" edge="1" parent="1" source="wIX2fMuR7Q2BnAWhRWcV-26" target="wIX2fMuR7Q2BnAWhRWcV-32">
          <mxGeometry relative="1" as="geometry" />
        </mxCell>
        <mxCell id="wIX2fMuR7Q2BnAWhRWcV-26" value="&lt;b&gt;Initialize variables&lt;/b&gt;&lt;br&gt;inName=&quot;GameInfo.dat&quot;&lt;br&gt;&amp;nbsp;outName[]=&quot;GameStats.dat&quot;&lt;br&gt;in.open&lt;br&gt;out.open" style="rounded=1;whiteSpace=wrap;html=1;strokeWidth=1;fontSize=12;" vertex="1" parent="1">
          <mxGeometry x="502.5" y="440" width="175" height="120" as="geometry" />
        </mxCell>
        <mxCell id="wIX2fMuR7Q2BnAWhRWcV-32" value="Page 2" style="ellipse;whiteSpace=wrap;html=1;aspect=fixed;strokeWidth=1;fontSize=12;" vertex="1" parent="1">
          <mxGeometry x="545" y="750" width="90" height="90" as="geometry" />
        </mxCell>
        <mxCell id="wIX2fMuR7Q2BnAWhRWcV-33" style="edgeStyle=orthogonalEdgeStyle;rounded=0;orthogonalLoop=1;jettySize=auto;html=1;exitX=0.5;exitY=1;exitDx=0;exitDy=0;fontSize=12;" edge="1" parent="1" source="wIX2fMuR7Q2BnAWhRWcV-26" target="wIX2fMuR7Q2BnAWhRWcV-26">
          <mxGeometry relative="1" as="geometry" />
        </mxCell>
      </root>
    </mxGraphModel>
  </diagram>
  <diagram id="UjQY3oIlVXIzo16xMR-A" name="Page-2">
    <mxGraphModel dx="600" dy="473" grid="1" gridSize="10" guides="1" tooltips="1" connect="1" arrows="1" fold="1" page="1" pageScale="1" pageWidth="850" pageHeight="1100" math="0" shadow="0">
      <root>
        <mxCell id="nYJBmVFA5AGcZIYMHD0S-0" />
        <mxCell id="nYJBmVFA5AGcZIYMHD0S-1" parent="nYJBmVFA5AGcZIYMHD0S-0" />
        <mxCell id="nYJBmVFA5AGcZIYMHD0S-9" style="edgeStyle=orthogonalEdgeStyle;rounded=0;orthogonalLoop=1;jettySize=auto;html=1;exitX=0.5;exitY=1;exitDx=0;exitDy=0;fontSize=20;" edge="1" parent="nYJBmVFA5AGcZIYMHD0S-1" source="nYJBmVFA5AGcZIYMHD0S-2" target="nYJBmVFA5AGcZIYMHD0S-7">
          <mxGeometry relative="1" as="geometry" />
        </mxCell>
        <mxCell id="nYJBmVFA5AGcZIYMHD0S-2" value="Page 2" style="ellipse;whiteSpace=wrap;html=1;aspect=fixed;strokeWidth=1;fontSize=12;" vertex="1" parent="nYJBmVFA5AGcZIYMHD0S-1">
          <mxGeometry x="100" y="70" width="80" height="80" as="geometry" />
        </mxCell>
        <mxCell id="nYJBmVFA5AGcZIYMHD0S-3" value="While Loop and Ternary Operator" style="text;html=1;align=center;verticalAlign=middle;resizable=0;points=[];autosize=1;fontSize=20;" vertex="1" parent="nYJBmVFA5AGcZIYMHD0S-1">
          <mxGeometry x="230" y="35" width="310" height="30" as="geometry" />
        </mxCell>
        <mxCell id="nYJBmVFA5AGcZIYMHD0S-11" style="edgeStyle=orthogonalEdgeStyle;rounded=0;orthogonalLoop=1;jettySize=auto;html=1;exitX=1;exitY=0.5;exitDx=0;exitDy=0;entryX=0;entryY=0.5;entryDx=0;entryDy=0;fontSize=20;" edge="1" parent="nYJBmVFA5AGcZIYMHD0S-1" source="nYJBmVFA5AGcZIYMHD0S-7" target="nYJBmVFA5AGcZIYMHD0S-8">
          <mxGeometry relative="1" as="geometry" />
        </mxCell>
        <mxCell id="nYJBmVFA5AGcZIYMHD0S-22" style="edgeStyle=orthogonalEdgeStyle;rounded=0;orthogonalLoop=1;jettySize=auto;html=1;fontSize=20;" edge="1" parent="nYJBmVFA5AGcZIYMHD0S-1" source="nYJBmVFA5AGcZIYMHD0S-7" target="nYJBmVFA5AGcZIYMHD0S-21">
          <mxGeometry relative="1" as="geometry" />
        </mxCell>
        <mxCell id="nYJBmVFA5AGcZIYMHD0S-7" value="in&amp;gt;&amp;gt;nGames" style="rhombus;whiteSpace=wrap;html=1;strokeWidth=1;fontSize=12;" vertex="1" parent="nYJBmVFA5AGcZIYMHD0S-1">
          <mxGeometry x="85" y="240" width="110" height="60" as="geometry" />
        </mxCell>
        <mxCell id="nYJBmVFA5AGcZIYMHD0S-17" style="edgeStyle=orthogonalEdgeStyle;rounded=0;orthogonalLoop=1;jettySize=auto;html=1;exitX=1;exitY=0.5;exitDx=0;exitDy=0;entryX=0;entryY=0.5;entryDx=0;entryDy=0;fontSize=20;" edge="1" parent="nYJBmVFA5AGcZIYMHD0S-1" source="nYJBmVFA5AGcZIYMHD0S-8" target="nYJBmVFA5AGcZIYMHD0S-15">
          <mxGeometry relative="1" as="geometry" />
        </mxCell>
        <mxCell id="nYJBmVFA5AGcZIYMHD0S-18" style="edgeStyle=orthogonalEdgeStyle;rounded=0;orthogonalLoop=1;jettySize=auto;html=1;exitX=0.5;exitY=1;exitDx=0;exitDy=0;fontSize=20;" edge="1" parent="nYJBmVFA5AGcZIYMHD0S-1" source="nYJBmVFA5AGcZIYMHD0S-8" target="nYJBmVFA5AGcZIYMHD0S-16">
          <mxGeometry relative="1" as="geometry" />
        </mxCell>
        <mxCell id="nYJBmVFA5AGcZIYMHD0S-8" value="nGames&amp;gt;lmGames" style="rhombus;whiteSpace=wrap;html=1;strokeWidth=1;fontSize=12;" vertex="1" parent="nYJBmVFA5AGcZIYMHD0S-1">
          <mxGeometry x="240" y="230" width="130" height="80" as="geometry" />
        </mxCell>
        <mxCell id="nYJBmVFA5AGcZIYMHD0S-12" value="&lt;font style=&quot;font-size: 12px&quot;&gt;True&lt;/font&gt;" style="text;html=1;align=center;verticalAlign=middle;resizable=0;points=[];autosize=1;fontSize=20;" vertex="1" parent="nYJBmVFA5AGcZIYMHD0S-1">
          <mxGeometry x="200" y="235" width="40" height="30" as="geometry" />
        </mxCell>
        <mxCell id="nYJBmVFA5AGcZIYMHD0S-19" style="edgeStyle=orthogonalEdgeStyle;rounded=0;orthogonalLoop=1;jettySize=auto;html=1;exitX=1;exitY=0.5;exitDx=0;exitDy=0;entryX=0.5;entryY=0;entryDx=0;entryDy=0;fontSize=20;" edge="1" parent="nYJBmVFA5AGcZIYMHD0S-1" source="nYJBmVFA5AGcZIYMHD0S-15" target="nYJBmVFA5AGcZIYMHD0S-7">
          <mxGeometry relative="1" as="geometry">
            <Array as="points">
              <mxPoint x="550" y="270" />
              <mxPoint x="550" y="220" />
              <mxPoint x="140" y="220" />
            </Array>
          </mxGeometry>
        </mxCell>
        <mxCell id="nYJBmVFA5AGcZIYMHD0S-15" value="&lt;font style=&quot;font-size: 12px&quot;&gt;&lt;font style=&quot;font-size: 12px&quot;&gt;nGam&lt;/font&gt;&lt;font style=&quot;font-size: 12px&quot;&gt;es=lmGames&lt;/font&gt;&lt;/font&gt;" style="rounded=1;whiteSpace=wrap;html=1;strokeWidth=1;fontSize=20;align=center;" vertex="1" parent="nYJBmVFA5AGcZIYMHD0S-1">
          <mxGeometry x="410" y="245" width="120" height="50" as="geometry" />
        </mxCell>
        <mxCell id="nYJBmVFA5AGcZIYMHD0S-20" style="edgeStyle=orthogonalEdgeStyle;rounded=0;orthogonalLoop=1;jettySize=auto;html=1;exitX=0.5;exitY=1;exitDx=0;exitDy=0;fontSize=20;" edge="1" parent="nYJBmVFA5AGcZIYMHD0S-1" source="nYJBmVFA5AGcZIYMHD0S-16">
          <mxGeometry relative="1" as="geometry">
            <mxPoint x="140" y="240" as="targetPoint" />
            <Array as="points">
              <mxPoint x="305" y="420" />
              <mxPoint x="560" y="420" />
              <mxPoint x="560" y="210" />
              <mxPoint x="140" y="210" />
            </Array>
          </mxGeometry>
        </mxCell>
        <mxCell id="nYJBmVFA5AGcZIYMHD0S-16" value="&lt;font style=&quot;font-size: 12px&quot;&gt;&lt;font style=&quot;font-size: 12px&quot;&gt;nGam&lt;/font&gt;&lt;font style=&quot;font-size: 12px&quot;&gt;es=nGames&lt;/font&gt;&lt;/font&gt;" style="rounded=1;whiteSpace=wrap;html=1;strokeWidth=1;fontSize=20;align=center;" vertex="1" parent="nYJBmVFA5AGcZIYMHD0S-1">
          <mxGeometry x="245" y="350" width="120" height="50" as="geometry" />
        </mxCell>
        <mxCell id="nYJBmVFA5AGcZIYMHD0S-21" value="&lt;span style=&quot;font-size: 12px&quot;&gt;&lt;b&gt;Start Time&lt;/b&gt;&lt;br&gt;beg=time(0)&lt;br&gt;&lt;/span&gt;" style="rounded=1;whiteSpace=wrap;html=1;strokeWidth=1;fontSize=20;align=center;" vertex="1" parent="nYJBmVFA5AGcZIYMHD0S-1">
          <mxGeometry x="80" y="340" width="120" height="50" as="geometry" />
        </mxCell>
        <mxCell id="SG5OGKs7f7bMEBc9oNyf-1" style="edgeStyle=orthogonalEdgeStyle;rounded=0;orthogonalLoop=1;jettySize=auto;html=1;exitX=0.5;exitY=1;exitDx=0;exitDy=0;fontSize=12;" edge="1" parent="nYJBmVFA5AGcZIYMHD0S-1" source="nYJBmVFA5AGcZIYMHD0S-23" target="SG5OGKs7f7bMEBc9oNyf-0">
          <mxGeometry relative="1" as="geometry" />
        </mxCell>
        <mxCell id="nYJBmVFA5AGcZIYMHD0S-23" value="&lt;font style=&quot;font-size: 12px&quot;&gt;&lt;b&gt;Call Function&lt;/b&gt;&lt;br&gt;crpGame&lt;/font&gt;" style="rounded=1;whiteSpace=wrap;html=1;strokeWidth=1;fontSize=20;align=center;" vertex="1" parent="nYJBmVFA5AGcZIYMHD0S-1">
          <mxGeometry x="80" y="420" width="120" height="50" as="geometry" />
        </mxCell>
        <mxCell id="nYJBmVFA5AGcZIYMHD0S-24" style="edgeStyle=orthogonalEdgeStyle;rounded=0;orthogonalLoop=1;jettySize=auto;html=1;exitX=0.5;exitY=1;exitDx=0;exitDy=0;fontSize=20;" edge="1" parent="nYJBmVFA5AGcZIYMHD0S-1" source="nYJBmVFA5AGcZIYMHD0S-21" target="nYJBmVFA5AGcZIYMHD0S-21">
          <mxGeometry relative="1" as="geometry" />
        </mxCell>
        <mxCell id="nYJBmVFA5AGcZIYMHD0S-25" style="edgeStyle=orthogonalEdgeStyle;rounded=0;orthogonalLoop=1;jettySize=auto;html=1;exitX=0.5;exitY=1;exitDx=0;exitDy=0;fontSize=20;" edge="1" parent="nYJBmVFA5AGcZIYMHD0S-1" source="nYJBmVFA5AGcZIYMHD0S-21" target="nYJBmVFA5AGcZIYMHD0S-23">
          <mxGeometry relative="1" as="geometry" />
        </mxCell>
        <mxCell id="pS5SBh9Eng2EGInvZzlD-2" style="edgeStyle=orthogonalEdgeStyle;rounded=0;orthogonalLoop=1;jettySize=auto;html=1;exitX=0.5;exitY=1;exitDx=0;exitDy=0;fontSize=20;" edge="1" parent="nYJBmVFA5AGcZIYMHD0S-1" source="nYJBmVFA5AGcZIYMHD0S-2" target="nYJBmVFA5AGcZIYMHD0S-2">
          <mxGeometry relative="1" as="geometry" />
        </mxCell>
        <mxCell id="pS5SBh9Eng2EGInvZzlD-3" style="edgeStyle=orthogonalEdgeStyle;rounded=0;orthogonalLoop=1;jettySize=auto;html=1;exitX=0.5;exitY=1;exitDx=0;exitDy=0;fontSize=20;" edge="1" parent="nYJBmVFA5AGcZIYMHD0S-1">
          <mxGeometry relative="1" as="geometry">
            <mxPoint x="150" y="160" as="sourcePoint" />
            <mxPoint x="150" y="160" as="targetPoint" />
          </mxGeometry>
        </mxCell>
        <mxCell id="SG5OGKs7f7bMEBc9oNyf-3" style="edgeStyle=orthogonalEdgeStyle;rounded=0;orthogonalLoop=1;jettySize=auto;html=1;exitX=0.5;exitY=1;exitDx=0;exitDy=0;fontSize=12;" edge="1" parent="nYJBmVFA5AGcZIYMHD0S-1" source="SG5OGKs7f7bMEBc9oNyf-0" target="SG5OGKs7f7bMEBc9oNyf-2">
          <mxGeometry relative="1" as="geometry" />
        </mxCell>
        <mxCell id="SG5OGKs7f7bMEBc9oNyf-0" value="&lt;span style=&quot;font-size: 12px&quot;&gt;&lt;b&gt;End Time&lt;/b&gt;&lt;br&gt;end=time(0)&lt;br&gt;&lt;/span&gt;" style="rounded=1;whiteSpace=wrap;html=1;strokeWidth=1;fontSize=20;align=center;" vertex="1" parent="nYJBmVFA5AGcZIYMHD0S-1">
          <mxGeometry x="80" y="500" width="120" height="50" as="geometry" />
        </mxCell>
        <mxCell id="SG5OGKs7f7bMEBc9oNyf-5" style="edgeStyle=orthogonalEdgeStyle;rounded=0;orthogonalLoop=1;jettySize=auto;html=1;exitX=0.5;exitY=1;exitDx=0;exitDy=0;fontSize=12;" edge="1" parent="nYJBmVFA5AGcZIYMHD0S-1" source="SG5OGKs7f7bMEBc9oNyf-2" target="SG5OGKs7f7bMEBc9oNyf-4">
          <mxGeometry relative="1" as="geometry" />
        </mxCell>
        <mxCell id="SG5OGKs7f7bMEBc9oNyf-2" value="&lt;b&gt;Output Time to Play Games&lt;/b&gt;&lt;br&gt;end-beg" style="shape=parallelogram;perimeter=parallelogramPerimeter;whiteSpace=wrap;html=1;fixedSize=1;strokeWidth=1;fontSize=12;align=center;" vertex="1" parent="nYJBmVFA5AGcZIYMHD0S-1">
          <mxGeometry x="65" y="580" width="150" height="60" as="geometry" />
        </mxCell>
        <mxCell id="clyaGQf8q4Ftov6gW488-2" style="edgeStyle=orthogonalEdgeStyle;rounded=0;orthogonalLoop=1;jettySize=auto;html=1;exitX=0.5;exitY=1;exitDx=0;exitDy=0;fontSize=12;" edge="1" parent="nYJBmVFA5AGcZIYMHD0S-1" source="SG5OGKs7f7bMEBc9oNyf-4" target="clyaGQf8q4Ftov6gW488-0">
          <mxGeometry relative="1" as="geometry" />
        </mxCell>
        <mxCell id="SG5OGKs7f7bMEBc9oNyf-4" value="&lt;font style=&quot;font-size: 12px&quot;&gt;&lt;b&gt;Call Function&lt;/b&gt;&lt;br&gt;scrnDsp&lt;br&gt;&lt;/font&gt;" style="rounded=1;whiteSpace=wrap;html=1;strokeWidth=1;fontSize=20;align=center;" vertex="1" parent="nYJBmVFA5AGcZIYMHD0S-1">
          <mxGeometry x="80" y="670" width="120" height="50" as="geometry" />
        </mxCell>
        <mxCell id="clyaGQf8q4Ftov6gW488-4" style="edgeStyle=orthogonalEdgeStyle;rounded=0;orthogonalLoop=1;jettySize=auto;html=1;exitX=0.5;exitY=1;exitDx=0;exitDy=0;fontSize=12;" edge="1" parent="nYJBmVFA5AGcZIYMHD0S-1" source="clyaGQf8q4Ftov6gW488-0" target="clyaGQf8q4Ftov6gW488-3">
          <mxGeometry relative="1" as="geometry" />
        </mxCell>
        <mxCell id="clyaGQf8q4Ftov6gW488-0" value="&lt;b&gt;Output Time to Play Games&lt;/b&gt;&lt;br&gt;end-beg" style="shape=parallelogram;perimeter=parallelogramPerimeter;whiteSpace=wrap;html=1;fixedSize=1;strokeWidth=1;fontSize=12;align=center;" vertex="1" parent="nYJBmVFA5AGcZIYMHD0S-1">
          <mxGeometry x="65" y="740" width="150" height="60" as="geometry" />
        </mxCell>
        <mxCell id="clyaGQf8q4Ftov6gW488-1" style="edgeStyle=orthogonalEdgeStyle;rounded=0;orthogonalLoop=1;jettySize=auto;html=1;exitX=0.5;exitY=1;exitDx=0;exitDy=0;fontSize=12;" edge="1" parent="nYJBmVFA5AGcZIYMHD0S-1" source="SG5OGKs7f7bMEBc9oNyf-4" target="SG5OGKs7f7bMEBc9oNyf-4">
          <mxGeometry relative="1" as="geometry" />
        </mxCell>
        <mxCell id="clyaGQf8q4Ftov6gW488-3" value="&lt;font style=&quot;font-size: 12px&quot;&gt;&lt;b&gt;Call Function&lt;/b&gt;&lt;br&gt;fileDsp&lt;br&gt;&lt;/font&gt;" style="rounded=1;whiteSpace=wrap;html=1;strokeWidth=1;fontSize=20;align=center;" vertex="1" parent="nYJBmVFA5AGcZIYMHD0S-1">
          <mxGeometry x="80" y="830" width="120" height="50" as="geometry" />
        </mxCell>
      </root>
    </mxGraphModel>
  </diagram>
  <diagram id="UKhPSqeenCXHEeXm4OdR" name="Page-3">
    <mxGraphModel dx="600" dy="473" grid="1" gridSize="10" guides="1" tooltips="1" connect="1" arrows="1" fold="1" page="1" pageScale="1" pageWidth="850" pageHeight="1100" math="0" shadow="0">
      <root>
        <mxCell id="kKkFytZNegTdZgUZcAA4-0" />
        <mxCell id="kKkFytZNegTdZgUZcAA4-1" parent="kKkFytZNegTdZgUZcAA4-0" />
        <mxCell id="2WaI40sEYXGKSJgLGtAs-0" value="crpGame Function" style="text;html=1;align=center;verticalAlign=middle;resizable=0;points=[];autosize=1;fontSize=20;" vertex="1" parent="kKkFytZNegTdZgUZcAA4-1">
          <mxGeometry x="335" y="25" width="180" height="30" as="geometry" />
        </mxCell>
        <mxCell id="as9LraDl7ODYi3Id9Hsg-3" style="edgeStyle=orthogonalEdgeStyle;rounded=0;orthogonalLoop=1;jettySize=auto;html=1;exitX=0.5;exitY=1;exitDx=0;exitDy=0;fontSize=20;" edge="1" parent="kKkFytZNegTdZgUZcAA4-1" source="2WaI40sEYXGKSJgLGtAs-1" target="as9LraDl7ODYi3Id9Hsg-0">
          <mxGeometry relative="1" as="geometry" />
        </mxCell>
        <mxCell id="2WaI40sEYXGKSJgLGtAs-1" value="crpGame" style="ellipse;whiteSpace=wrap;html=1;aspect=fixed;strokeWidth=1;fontSize=12;" vertex="1" parent="kKkFytZNegTdZgUZcAA4-1">
          <mxGeometry x="100" y="120" width="80" height="80" as="geometry" />
        </mxCell>
        <mxCell id="as9LraDl7ODYi3Id9Hsg-4" style="edgeStyle=orthogonalEdgeStyle;rounded=0;orthogonalLoop=1;jettySize=auto;html=1;exitX=0.5;exitY=1;exitDx=0;exitDy=0;fontSize=20;" edge="1" parent="kKkFytZNegTdZgUZcAA4-1" source="as9LraDl7ODYi3Id9Hsg-0" target="as9LraDl7ODYi3Id9Hsg-1">
          <mxGeometry relative="1" as="geometry" />
        </mxCell>
        <mxCell id="as9LraDl7ODYi3Id9Hsg-0" value="&lt;font style=&quot;font-size: 12px&quot;&gt;&lt;b&gt;Declare and Initialize in For Loop&lt;/b&gt;&lt;br&gt;game=1&lt;br&gt;&lt;/font&gt;" style="rounded=1;whiteSpace=wrap;html=1;strokeWidth=1;fontSize=20;align=center;" vertex="1" parent="kKkFytZNegTdZgUZcAA4-1">
          <mxGeometry x="65" y="230" width="150" height="70" as="geometry" />
        </mxCell>
        <mxCell id="as9LraDl7ODYi3Id9Hsg-9" style="edgeStyle=orthogonalEdgeStyle;rounded=0;orthogonalLoop=1;jettySize=auto;html=1;exitX=0.5;exitY=1;exitDx=0;exitDy=0;fontSize=20;" edge="1" parent="kKkFytZNegTdZgUZcAA4-1" source="as9LraDl7ODYi3Id9Hsg-1" target="as9LraDl7ODYi3Id9Hsg-8">
          <mxGeometry relative="1" as="geometry" />
        </mxCell>
        <mxCell id="as9LraDl7ODYi3Id9Hsg-18" style="edgeStyle=orthogonalEdgeStyle;rounded=0;orthogonalLoop=1;jettySize=auto;html=1;exitX=1;exitY=0.5;exitDx=0;exitDy=0;entryX=0;entryY=0.5;entryDx=0;entryDy=0;fontSize=20;" edge="1" parent="kKkFytZNegTdZgUZcAA4-1" source="as9LraDl7ODYi3Id9Hsg-1" target="as9LraDl7ODYi3Id9Hsg-7">
          <mxGeometry relative="1" as="geometry" />
        </mxCell>
        <mxCell id="as9LraDl7ODYi3Id9Hsg-1" value="&lt;font size=&quot;1&quot;&gt;game&amp;lt;=ngames&lt;/font&gt;" style="rhombus;whiteSpace=wrap;html=1;strokeWidth=1;fontSize=20;align=center;" vertex="1" parent="kKkFytZNegTdZgUZcAA4-1">
          <mxGeometry x="85" y="360" width="110" height="90" as="geometry" />
        </mxCell>
        <mxCell id="as9LraDl7ODYi3Id9Hsg-5" value="&lt;span style=&quot;font-size: 12px&quot;&gt;True&lt;/span&gt;" style="text;html=1;align=center;verticalAlign=middle;resizable=0;points=[];autosize=1;fontSize=20;" vertex="1" parent="kKkFytZNegTdZgUZcAA4-1">
          <mxGeometry x="175" y="365" width="40" height="30" as="geometry" />
        </mxCell>
        <mxCell id="as9LraDl7ODYi3Id9Hsg-6" value="&lt;font style=&quot;font-size: 12px&quot;&gt;False&lt;/font&gt;" style="text;html=1;align=center;verticalAlign=middle;resizable=0;points=[];autosize=1;fontSize=20;" vertex="1" parent="kKkFytZNegTdZgUZcAA4-1">
          <mxGeometry x="65" y="490" width="50" height="30" as="geometry" />
        </mxCell>
        <mxCell id="as9LraDl7ODYi3Id9Hsg-11" value="" style="edgeStyle=orthogonalEdgeStyle;rounded=0;orthogonalLoop=1;jettySize=auto;html=1;fontSize=20;" edge="1" parent="kKkFytZNegTdZgUZcAA4-1" source="as9LraDl7ODYi3Id9Hsg-7" target="as9LraDl7ODYi3Id9Hsg-10">
          <mxGeometry relative="1" as="geometry" />
        </mxCell>
        <mxCell id="as9LraDl7ODYi3Id9Hsg-7" value="&lt;font style=&quot;font-size: 12px&quot;&gt;&lt;b&gt;Declare Variables&lt;/b&gt;&lt;br&gt;gmThrw=1&lt;br&gt;&lt;/font&gt;" style="rounded=1;whiteSpace=wrap;html=1;strokeWidth=1;fontSize=20;align=center;" vertex="1" parent="kKkFytZNegTdZgUZcAA4-1">
          <mxGeometry x="245" y="345" width="150" height="70" as="geometry" />
        </mxCell>
        <mxCell id="as9LraDl7ODYi3Id9Hsg-8" value="Return to Main" style="ellipse;whiteSpace=wrap;html=1;aspect=fixed;strokeWidth=1;fontSize=12;" vertex="1" parent="kKkFytZNegTdZgUZcAA4-1">
          <mxGeometry x="100" y="550" width="80" height="80" as="geometry" />
        </mxCell>
        <mxCell id="as9LraDl7ODYi3Id9Hsg-21" style="edgeStyle=orthogonalEdgeStyle;rounded=0;orthogonalLoop=1;jettySize=auto;html=1;exitX=1;exitY=0.5;exitDx=0;exitDy=0;entryX=0;entryY=0.5;entryDx=0;entryDy=0;fontSize=20;" edge="1" parent="kKkFytZNegTdZgUZcAA4-1" source="as9LraDl7ODYi3Id9Hsg-10" target="as9LraDl7ODYi3Id9Hsg-13">
          <mxGeometry relative="1" as="geometry" />
        </mxCell>
        <mxCell id="as9LraDl7ODYi3Id9Hsg-10" value="&lt;font style=&quot;font-size: 12px&quot;&gt;&lt;b&gt;Set Vaiable Equal to Output of rollDie Function&lt;/b&gt;&lt;br&gt;sum1=rollDie&lt;br&gt;&lt;/font&gt;" style="rounded=1;whiteSpace=wrap;html=1;strokeWidth=1;fontSize=20;align=center;" vertex="1" parent="kKkFytZNegTdZgUZcAA4-1">
          <mxGeometry x="245" y="440" width="160" height="80" as="geometry" />
        </mxCell>
        <mxCell id="as9LraDl7ODYi3Id9Hsg-22" style="edgeStyle=orthogonalEdgeStyle;rounded=0;orthogonalLoop=1;jettySize=auto;html=1;exitX=0.5;exitY=1;exitDx=0;exitDy=0;fontSize=20;" edge="1" parent="kKkFytZNegTdZgUZcAA4-1" source="as9LraDl7ODYi3Id9Hsg-13" target="as9LraDl7ODYi3Id9Hsg-16">
          <mxGeometry relative="1" as="geometry" />
        </mxCell>
        <mxCell id="as9LraDl7ODYi3Id9Hsg-45" style="edgeStyle=orthogonalEdgeStyle;rounded=0;orthogonalLoop=1;jettySize=auto;html=1;exitX=1;exitY=0.5;exitDx=0;exitDy=0;entryX=0.5;entryY=0;entryDx=0;entryDy=0;fontSize=12;" edge="1" parent="kKkFytZNegTdZgUZcAA4-1" source="as9LraDl7ODYi3Id9Hsg-13" target="as9LraDl7ODYi3Id9Hsg-44">
          <mxGeometry relative="1" as="geometry" />
        </mxCell>
        <mxCell id="as9LraDl7ODYi3Id9Hsg-13" value="&lt;font style=&quot;font-size: 12px&quot;&gt;sum1==7&lt;/font&gt;" style="rhombus;whiteSpace=wrap;html=1;strokeWidth=1;fontSize=20;align=center;" vertex="1" parent="kKkFytZNegTdZgUZcAA4-1">
          <mxGeometry x="510" y="90" width="110" height="90" as="geometry" />
        </mxCell>
        <mxCell id="as9LraDl7ODYi3Id9Hsg-24" style="edgeStyle=orthogonalEdgeStyle;rounded=0;orthogonalLoop=1;jettySize=auto;html=1;exitX=0.5;exitY=1;exitDx=0;exitDy=0;fontSize=20;" edge="1" parent="kKkFytZNegTdZgUZcAA4-1" source="as9LraDl7ODYi3Id9Hsg-14" target="as9LraDl7ODYi3Id9Hsg-17">
          <mxGeometry relative="1" as="geometry" />
        </mxCell>
        <mxCell id="as9LraDl7ODYi3Id9Hsg-48" style="edgeStyle=orthogonalEdgeStyle;rounded=0;orthogonalLoop=1;jettySize=auto;html=1;exitX=1;exitY=0.5;exitDx=0;exitDy=0;fontSize=12;" edge="1" parent="kKkFytZNegTdZgUZcAA4-1" source="as9LraDl7ODYi3Id9Hsg-14" target="as9LraDl7ODYi3Id9Hsg-44">
          <mxGeometry relative="1" as="geometry" />
        </mxCell>
        <mxCell id="as9LraDl7ODYi3Id9Hsg-14" value="&lt;font style=&quot;font-size: 12px&quot;&gt;sum1==2&lt;/font&gt;" style="rhombus;whiteSpace=wrap;html=1;strokeWidth=1;fontSize=20;align=center;" vertex="1" parent="kKkFytZNegTdZgUZcAA4-1">
          <mxGeometry x="510" y="325" width="110" height="90" as="geometry" />
        </mxCell>
        <mxCell id="as9LraDl7ODYi3Id9Hsg-29" style="edgeStyle=orthogonalEdgeStyle;rounded=0;orthogonalLoop=1;jettySize=auto;html=1;exitX=0;exitY=0.5;exitDx=0;exitDy=0;entryX=0.5;entryY=0;entryDx=0;entryDy=0;fontSize=20;" edge="1" parent="kKkFytZNegTdZgUZcAA4-1" source="as9LraDl7ODYi3Id9Hsg-15" target="as9LraDl7ODYi3Id9Hsg-28">
          <mxGeometry relative="1" as="geometry" />
        </mxCell>
        <mxCell id="as9LraDl7ODYi3Id9Hsg-15" value="&lt;span style=&quot;font-size: 12px;&quot;&gt;sum1==12&lt;/span&gt;" style="rhombus;whiteSpace=wrap;html=1;strokeWidth=1;fontSize=12;align=center;" vertex="1" parent="kKkFytZNegTdZgUZcAA4-1">
          <mxGeometry x="510" y="560" width="110" height="90" as="geometry" />
        </mxCell>
        <mxCell id="as9LraDl7ODYi3Id9Hsg-23" style="edgeStyle=orthogonalEdgeStyle;rounded=0;orthogonalLoop=1;jettySize=auto;html=1;exitX=0.5;exitY=1;exitDx=0;exitDy=0;fontSize=20;" edge="1" parent="kKkFytZNegTdZgUZcAA4-1" source="as9LraDl7ODYi3Id9Hsg-16" target="as9LraDl7ODYi3Id9Hsg-14">
          <mxGeometry relative="1" as="geometry" />
        </mxCell>
        <mxCell id="as9LraDl7ODYi3Id9Hsg-27" style="edgeStyle=orthogonalEdgeStyle;rounded=0;orthogonalLoop=1;jettySize=auto;html=1;exitX=0;exitY=0.5;exitDx=0;exitDy=0;entryX=0.533;entryY=0.143;entryDx=0;entryDy=0;entryPerimeter=0;fontSize=20;" edge="1" parent="kKkFytZNegTdZgUZcAA4-1" source="as9LraDl7ODYi3Id9Hsg-16" target="as9LraDl7ODYi3Id9Hsg-26">
          <mxGeometry relative="1" as="geometry">
            <Array as="points">
              <mxPoint x="470" y="255" />
              <mxPoint x="470" y="560" />
              <mxPoint x="400" y="560" />
            </Array>
          </mxGeometry>
        </mxCell>
        <mxCell id="as9LraDl7ODYi3Id9Hsg-16" value="&lt;font style=&quot;font-size: 12px&quot;&gt;sum1==11&lt;/font&gt;" style="rhombus;whiteSpace=wrap;html=1;strokeWidth=1;fontSize=20;align=center;" vertex="1" parent="kKkFytZNegTdZgUZcAA4-1">
          <mxGeometry x="510" y="210" width="110" height="90" as="geometry" />
        </mxCell>
        <mxCell id="as9LraDl7ODYi3Id9Hsg-25" style="edgeStyle=orthogonalEdgeStyle;rounded=0;orthogonalLoop=1;jettySize=auto;html=1;exitX=0.5;exitY=1;exitDx=0;exitDy=0;fontSize=20;" edge="1" parent="kKkFytZNegTdZgUZcAA4-1" source="as9LraDl7ODYi3Id9Hsg-17" target="as9LraDl7ODYi3Id9Hsg-15">
          <mxGeometry relative="1" as="geometry" />
        </mxCell>
        <mxCell id="as9LraDl7ODYi3Id9Hsg-49" style="edgeStyle=orthogonalEdgeStyle;rounded=0;orthogonalLoop=1;jettySize=auto;html=1;exitX=1;exitY=0.5;exitDx=0;exitDy=0;fontSize=12;" edge="1" parent="kKkFytZNegTdZgUZcAA4-1" source="as9LraDl7ODYi3Id9Hsg-17" target="as9LraDl7ODYi3Id9Hsg-44">
          <mxGeometry relative="1" as="geometry" />
        </mxCell>
        <mxCell id="as9LraDl7ODYi3Id9Hsg-17" value="&lt;span style=&quot;font-size: 12px;&quot;&gt;sum1==3&lt;/span&gt;" style="rhombus;whiteSpace=wrap;html=1;strokeWidth=1;fontSize=12;align=center;" vertex="1" parent="kKkFytZNegTdZgUZcAA4-1">
          <mxGeometry x="510" y="440" width="110" height="90" as="geometry" />
        </mxCell>
        <mxCell id="as9LraDl7ODYi3Id9Hsg-31" style="edgeStyle=orthogonalEdgeStyle;rounded=0;orthogonalLoop=1;jettySize=auto;html=1;exitX=0.5;exitY=1;exitDx=0;exitDy=0;fontSize=20;" edge="1" parent="kKkFytZNegTdZgUZcAA4-1" source="as9LraDl7ODYi3Id9Hsg-26" target="as9LraDl7ODYi3Id9Hsg-30">
          <mxGeometry relative="1" as="geometry" />
        </mxCell>
        <mxCell id="as9LraDl7ODYi3Id9Hsg-26" value="&lt;font style=&quot;font-size: 12px&quot;&gt;&lt;b&gt;Store sum1 as a Win&amp;nbsp;&lt;br&gt;&lt;/b&gt;wins[sum1]++&lt;br&gt;&lt;/font&gt;" style="rounded=1;whiteSpace=wrap;html=1;strokeWidth=1;fontSize=20;align=center;" vertex="1" parent="kKkFytZNegTdZgUZcAA4-1">
          <mxGeometry x="320" y="600" width="150" height="70" as="geometry" />
        </mxCell>
        <mxCell id="as9LraDl7ODYi3Id9Hsg-32" style="edgeStyle=orthogonalEdgeStyle;rounded=0;orthogonalLoop=1;jettySize=auto;html=1;exitX=0.5;exitY=1;exitDx=0;exitDy=0;fontSize=20;" edge="1" parent="kKkFytZNegTdZgUZcAA4-1" source="as9LraDl7ODYi3Id9Hsg-28">
          <mxGeometry relative="1" as="geometry">
            <mxPoint x="350" y="860" as="targetPoint" />
          </mxGeometry>
        </mxCell>
        <mxCell id="as9LraDl7ODYi3Id9Hsg-28" value="&lt;font style=&quot;font-size: 12px&quot;&gt;&lt;b&gt;Store sum1 as a Loss&lt;/b&gt;&lt;br&gt;losses[sum1]++&lt;br&gt;&lt;/font&gt;" style="rounded=1;whiteSpace=wrap;html=1;strokeWidth=1;fontSize=20;align=center;" vertex="1" parent="kKkFytZNegTdZgUZcAA4-1">
          <mxGeometry x="405" y="730" width="150" height="70" as="geometry" />
        </mxCell>
        <mxCell id="as9LraDl7ODYi3Id9Hsg-34" style="edgeStyle=orthogonalEdgeStyle;rounded=0;orthogonalLoop=1;jettySize=auto;html=1;exitX=0.5;exitY=1;exitDx=0;exitDy=0;entryX=0;entryY=0.5;entryDx=0;entryDy=0;fontSize=20;" edge="1" parent="kKkFytZNegTdZgUZcAA4-1" source="as9LraDl7ODYi3Id9Hsg-30" target="as9LraDl7ODYi3Id9Hsg-33">
          <mxGeometry relative="1" as="geometry" />
        </mxCell>
        <mxCell id="as9LraDl7ODYi3Id9Hsg-30" value="&lt;font style=&quot;font-size: 12px&quot;&gt;&lt;b&gt;Keep Track of Throws&lt;br&gt;&lt;/b&gt;numThrw+=gmThrw&lt;br&gt;&lt;/font&gt;" style="rounded=1;whiteSpace=wrap;html=1;strokeWidth=1;fontSize=20;align=center;" vertex="1" parent="kKkFytZNegTdZgUZcAA4-1">
          <mxGeometry x="275" y="850" width="150" height="70" as="geometry" />
        </mxCell>
        <mxCell id="as9LraDl7ODYi3Id9Hsg-38" style="edgeStyle=orthogonalEdgeStyle;rounded=0;orthogonalLoop=1;jettySize=auto;html=1;exitX=0.5;exitY=1;exitDx=0;exitDy=0;entryX=0.5;entryY=0;entryDx=0;entryDy=0;fontSize=12;" edge="1" parent="kKkFytZNegTdZgUZcAA4-1" source="as9LraDl7ODYi3Id9Hsg-33" target="as9LraDl7ODYi3Id9Hsg-37">
          <mxGeometry relative="1" as="geometry">
            <Array as="points">
              <mxPoint x="650" y="990" />
            </Array>
          </mxGeometry>
        </mxCell>
        <mxCell id="as9LraDl7ODYi3Id9Hsg-40" style="edgeStyle=orthogonalEdgeStyle;rounded=0;orthogonalLoop=1;jettySize=auto;html=1;exitX=1;exitY=0.5;exitDx=0;exitDy=0;fontSize=12;" edge="1" parent="kKkFytZNegTdZgUZcAA4-1" source="as9LraDl7ODYi3Id9Hsg-33" target="as9LraDl7ODYi3Id9Hsg-36">
          <mxGeometry relative="1" as="geometry" />
        </mxCell>
        <mxCell id="as9LraDl7ODYi3Id9Hsg-33" value="&lt;span style=&quot;font-size: 12px;&quot;&gt;mxThrw&amp;lt;gmThrw&lt;/span&gt;" style="rhombus;whiteSpace=wrap;html=1;strokeWidth=1;fontSize=12;align=center;" vertex="1" parent="kKkFytZNegTdZgUZcAA4-1">
          <mxGeometry x="530" y="900" width="110" height="90" as="geometry" />
        </mxCell>
        <mxCell id="as9LraDl7ODYi3Id9Hsg-39" style="edgeStyle=orthogonalEdgeStyle;rounded=0;orthogonalLoop=1;jettySize=auto;html=1;exitX=0.5;exitY=1;exitDx=0;exitDy=0;fontSize=12;" edge="1" parent="kKkFytZNegTdZgUZcAA4-1" source="as9LraDl7ODYi3Id9Hsg-36" target="as9LraDl7ODYi3Id9Hsg-37">
          <mxGeometry relative="1" as="geometry">
            <Array as="points">
              <mxPoint x="745" y="980" />
              <mxPoint x="650" y="980" />
            </Array>
          </mxGeometry>
        </mxCell>
        <mxCell id="as9LraDl7ODYi3Id9Hsg-36" value="&lt;font style=&quot;font-size: 12px&quot;&gt;mxThrw=gmThrw&lt;br&gt;&lt;/font&gt;" style="rounded=1;whiteSpace=wrap;html=1;strokeWidth=1;fontSize=20;align=center;" vertex="1" parent="kKkFytZNegTdZgUZcAA4-1">
          <mxGeometry x="680" y="920" width="130" height="50" as="geometry" />
        </mxCell>
        <mxCell id="as9LraDl7ODYi3Id9Hsg-37" value="Return to Main" style="ellipse;whiteSpace=wrap;html=1;aspect=fixed;strokeWidth=1;fontSize=12;" vertex="1" parent="kKkFytZNegTdZgUZcAA4-1">
          <mxGeometry x="610" y="1000" width="80" height="80" as="geometry" />
        </mxCell>
        <mxCell id="as9LraDl7ODYi3Id9Hsg-41" value="True" style="text;html=1;align=center;verticalAlign=middle;resizable=0;points=[];autosize=1;fontSize=12;" vertex="1" parent="kKkFytZNegTdZgUZcAA4-1">
          <mxGeometry x="630" y="920" width="40" height="20" as="geometry" />
        </mxCell>
        <mxCell id="as9LraDl7ODYi3Id9Hsg-42" value="False" style="text;html=1;align=center;verticalAlign=middle;resizable=0;points=[];autosize=1;fontSize=12;" vertex="1" parent="kKkFytZNegTdZgUZcAA4-1">
          <mxGeometry x="575" y="1000" width="50" height="20" as="geometry" />
        </mxCell>
        <mxCell id="as9LraDl7ODYi3Id9Hsg-50" style="edgeStyle=orthogonalEdgeStyle;rounded=0;orthogonalLoop=1;jettySize=auto;html=1;exitX=0.5;exitY=1;exitDx=0;exitDy=0;fontSize=12;" edge="1" parent="kKkFytZNegTdZgUZcAA4-1" source="as9LraDl7ODYi3Id9Hsg-44">
          <mxGeometry relative="1" as="geometry">
            <mxPoint x="140" y="360" as="targetPoint" />
            <Array as="points">
              <mxPoint x="710" y="650" />
              <mxPoint x="770" y="650" />
              <mxPoint x="770" y="70" />
              <mxPoint x="230" y="70" />
              <mxPoint x="230" y="360" />
            </Array>
          </mxGeometry>
        </mxCell>
        <mxCell id="as9LraDl7ODYi3Id9Hsg-44" value="Page 4" style="ellipse;whiteSpace=wrap;html=1;aspect=fixed;strokeWidth=1;fontSize=12;align=center;" vertex="1" parent="kKkFytZNegTdZgUZcAA4-1">
          <mxGeometry x="670" y="550" width="80" height="80" as="geometry" />
        </mxCell>
        <mxCell id="lIzohSA5DNMwhcLtnkSg-0" value="For Loop" style="text;html=1;align=center;verticalAlign=middle;resizable=0;points=[];autosize=1;fontSize=12;" vertex="1" parent="kKkFytZNegTdZgUZcAA4-1">
          <mxGeometry x="140" y="200" width="60" height="20" as="geometry" />
        </mxCell>
        <mxCell id="lIzohSA5DNMwhcLtnkSg-1" value="Switch Statement" style="text;html=1;align=center;verticalAlign=middle;resizable=0;points=[];autosize=1;fontSize=12;" vertex="1" parent="kKkFytZNegTdZgUZcAA4-1">
          <mxGeometry x="425" y="100" width="110" height="20" as="geometry" />
        </mxCell>
      </root>
    </mxGraphModel>
  </diagram>
  <diagram id="h753JrrC8x2BealboOqg" name="Page-4">
    <mxGraphModel dx="1000" dy="788" grid="1" gridSize="10" guides="1" tooltips="1" connect="1" arrows="1" fold="1" page="1" pageScale="1" pageWidth="850" pageHeight="1100" math="0" shadow="0">
      <root>
        <mxCell id="FL63Lk29zHyhv8Zzoz2--0" />
        <mxCell id="FL63Lk29zHyhv8Zzoz2--1" parent="FL63Lk29zHyhv8Zzoz2--0" />
        <mxCell id="FL63Lk29zHyhv8Zzoz2--5" style="edgeStyle=orthogonalEdgeStyle;rounded=0;orthogonalLoop=1;jettySize=auto;html=1;exitX=0.5;exitY=1;exitDx=0;exitDy=0;fontSize=12;" edge="1" parent="FL63Lk29zHyhv8Zzoz2--1" source="FL63Lk29zHyhv8Zzoz2--2" target="FL63Lk29zHyhv8Zzoz2--4">
          <mxGeometry relative="1" as="geometry" />
        </mxCell>
        <mxCell id="FL63Lk29zHyhv8Zzoz2--2" value="Page 4" style="ellipse;whiteSpace=wrap;html=1;aspect=fixed;strokeWidth=1;fontSize=12;align=center;" vertex="1" parent="FL63Lk29zHyhv8Zzoz2--1">
          <mxGeometry x="60" y="80" width="80" height="80" as="geometry" />
        </mxCell>
        <mxCell id="FL63Lk29zHyhv8Zzoz2--3" value="Do While Loop for crpGame Function" style="text;html=1;align=center;verticalAlign=middle;resizable=0;points=[];autosize=1;fontSize=20;" vertex="1" parent="FL63Lk29zHyhv8Zzoz2--1">
          <mxGeometry x="155" y="25" width="350" height="30" as="geometry" />
        </mxCell>
        <mxCell id="FL63Lk29zHyhv8Zzoz2--7" style="edgeStyle=orthogonalEdgeStyle;rounded=0;orthogonalLoop=1;jettySize=auto;html=1;exitX=0.5;exitY=1;exitDx=0;exitDy=0;entryX=0.5;entryY=0;entryDx=0;entryDy=0;fontSize=12;" edge="1" parent="FL63Lk29zHyhv8Zzoz2--1" source="FL63Lk29zHyhv8Zzoz2--4" target="FL63Lk29zHyhv8Zzoz2--6">
          <mxGeometry relative="1" as="geometry" />
        </mxCell>
        <mxCell id="FL63Lk29zHyhv8Zzoz2--4" value="&lt;b style=&quot;font-size: 12px;&quot;&gt;Declare Variables Outside Loop&lt;/b&gt;&lt;br style=&quot;font-size: 12px;&quot;&gt;thrwAgn=true" style="rounded=1;whiteSpace=wrap;html=1;strokeWidth=1;fontSize=12;align=center;" vertex="1" parent="FL63Lk29zHyhv8Zzoz2--1">
          <mxGeometry x="55" y="190" width="90" height="90" as="geometry" />
        </mxCell>
        <mxCell id="FL63Lk29zHyhv8Zzoz2--10" style="edgeStyle=orthogonalEdgeStyle;rounded=0;orthogonalLoop=1;jettySize=auto;html=1;exitX=0.5;exitY=1;exitDx=0;exitDy=0;fontSize=12;" edge="1" parent="FL63Lk29zHyhv8Zzoz2--1" source="FL63Lk29zHyhv8Zzoz2--6" target="FL63Lk29zHyhv8Zzoz2--9">
          <mxGeometry relative="1" as="geometry" />
        </mxCell>
        <mxCell id="FL63Lk29zHyhv8Zzoz2--6" value="&lt;b&gt;Call rollDie Function&lt;/b&gt;&lt;br&gt;sum2=rollDie(6)" style="rounded=1;whiteSpace=wrap;html=1;strokeWidth=1;fontSize=12;align=center;" vertex="1" parent="FL63Lk29zHyhv8Zzoz2--1">
          <mxGeometry x="47.5" y="340" width="105" height="70" as="geometry" />
        </mxCell>
        <mxCell id="FL63Lk29zHyhv8Zzoz2--8" value="do-while loop" style="text;html=1;align=center;verticalAlign=middle;resizable=0;points=[];autosize=1;fontSize=12;" vertex="1" parent="FL63Lk29zHyhv8Zzoz2--1">
          <mxGeometry x="105" y="300" width="90" height="20" as="geometry" />
        </mxCell>
        <mxCell id="FL63Lk29zHyhv8Zzoz2--12" style="edgeStyle=orthogonalEdgeStyle;rounded=0;orthogonalLoop=1;jettySize=auto;html=1;exitX=1;exitY=0.5;exitDx=0;exitDy=0;entryX=0;entryY=0.5;entryDx=0;entryDy=0;fontSize=12;" edge="1" parent="FL63Lk29zHyhv8Zzoz2--1" source="FL63Lk29zHyhv8Zzoz2--9" target="FL63Lk29zHyhv8Zzoz2--11">
          <mxGeometry relative="1" as="geometry" />
        </mxCell>
        <mxCell id="FL63Lk29zHyhv8Zzoz2--9" value="&lt;b&gt;Increment # Throws&lt;/b&gt;&lt;br&gt;gmThrw++" style="rounded=1;whiteSpace=wrap;html=1;strokeWidth=1;fontSize=12;align=center;" vertex="1" parent="FL63Lk29zHyhv8Zzoz2--1">
          <mxGeometry x="55" y="450" width="90" height="60" as="geometry" />
        </mxCell>
        <mxCell id="FL63Lk29zHyhv8Zzoz2--15" style="edgeStyle=orthogonalEdgeStyle;rounded=0;orthogonalLoop=1;jettySize=auto;html=1;exitX=1;exitY=0.5;exitDx=0;exitDy=0;fontSize=12;" edge="1" parent="FL63Lk29zHyhv8Zzoz2--1" source="FL63Lk29zHyhv8Zzoz2--11" target="FL63Lk29zHyhv8Zzoz2--14">
          <mxGeometry relative="1" as="geometry" />
        </mxCell>
        <mxCell id="FL63Lk29zHyhv8Zzoz2--21" style="edgeStyle=orthogonalEdgeStyle;rounded=0;orthogonalLoop=1;jettySize=auto;html=1;exitX=0.5;exitY=1;exitDx=0;exitDy=0;fontSize=12;" edge="1" parent="FL63Lk29zHyhv8Zzoz2--1" source="FL63Lk29zHyhv8Zzoz2--11" target="FL63Lk29zHyhv8Zzoz2--18">
          <mxGeometry relative="1" as="geometry" />
        </mxCell>
        <mxCell id="FL63Lk29zHyhv8Zzoz2--11" value="sum2==7" style="rhombus;whiteSpace=wrap;html=1;strokeWidth=1;fontSize=12;align=center;" vertex="1" parent="FL63Lk29zHyhv8Zzoz2--1">
          <mxGeometry x="230" y="440" width="80" height="80" as="geometry" />
        </mxCell>
        <mxCell id="FL63Lk29zHyhv8Zzoz2--17" style="edgeStyle=orthogonalEdgeStyle;rounded=0;orthogonalLoop=1;jettySize=auto;html=1;exitX=1;exitY=0.5;exitDx=0;exitDy=0;entryX=0;entryY=0.5;entryDx=0;entryDy=0;fontSize=12;" edge="1" parent="FL63Lk29zHyhv8Zzoz2--1" source="FL63Lk29zHyhv8Zzoz2--14" target="FL63Lk29zHyhv8Zzoz2--16">
          <mxGeometry relative="1" as="geometry" />
        </mxCell>
        <mxCell id="FL63Lk29zHyhv8Zzoz2--14" value="&lt;b&gt;Add Value to Losses&lt;/b&gt;&lt;br&gt;losses[sum1]++" style="rounded=1;whiteSpace=wrap;html=1;strokeWidth=1;fontSize=12;align=center;" vertex="1" parent="FL63Lk29zHyhv8Zzoz2--1">
          <mxGeometry x="370" y="447.5" width="90" height="65" as="geometry" />
        </mxCell>
        <mxCell id="FL63Lk29zHyhv8Zzoz2--27" style="edgeStyle=orthogonalEdgeStyle;rounded=0;orthogonalLoop=1;jettySize=auto;html=1;exitX=1;exitY=0.5;exitDx=0;exitDy=0;entryX=0;entryY=0.5;entryDx=0;entryDy=0;fontSize=12;" edge="1" parent="FL63Lk29zHyhv8Zzoz2--1" source="FL63Lk29zHyhv8Zzoz2--16" target="FL63Lk29zHyhv8Zzoz2--26">
          <mxGeometry relative="1" as="geometry" />
        </mxCell>
        <mxCell id="FL63Lk29zHyhv8Zzoz2--16" value="&lt;span style=&quot;font-weight: normal&quot;&gt;thrwAgn=false&lt;/span&gt;" style="rounded=1;whiteSpace=wrap;html=1;strokeWidth=1;fontSize=12;align=center;fontStyle=1" vertex="1" parent="FL63Lk29zHyhv8Zzoz2--1">
          <mxGeometry x="500" y="447.5" width="90" height="65" as="geometry" />
        </mxCell>
        <mxCell id="FL63Lk29zHyhv8Zzoz2--23" style="edgeStyle=orthogonalEdgeStyle;rounded=0;orthogonalLoop=1;jettySize=auto;html=1;exitX=1;exitY=0.5;exitDx=0;exitDy=0;entryX=0;entryY=0.5;entryDx=0;entryDy=0;fontSize=12;" edge="1" parent="FL63Lk29zHyhv8Zzoz2--1" source="FL63Lk29zHyhv8Zzoz2--18" target="FL63Lk29zHyhv8Zzoz2--22">
          <mxGeometry relative="1" as="geometry" />
        </mxCell>
        <mxCell id="FL63Lk29zHyhv8Zzoz2--18" value="sum1==sum2" style="rhombus;whiteSpace=wrap;html=1;strokeWidth=1;fontSize=12;align=center;" vertex="1" parent="FL63Lk29zHyhv8Zzoz2--1">
          <mxGeometry x="220" y="550" width="100" height="80" as="geometry" />
        </mxCell>
        <mxCell id="FL63Lk29zHyhv8Zzoz2--19" value="True" style="text;html=1;align=center;verticalAlign=middle;resizable=0;points=[];autosize=1;fontSize=12;" vertex="1" parent="FL63Lk29zHyhv8Zzoz2--1">
          <mxGeometry x="310" y="440" width="40" height="20" as="geometry" />
        </mxCell>
        <mxCell id="FL63Lk29zHyhv8Zzoz2--20" value="False" style="text;html=1;align=center;verticalAlign=middle;resizable=0;points=[];autosize=1;fontSize=12;" vertex="1" parent="FL63Lk29zHyhv8Zzoz2--1">
          <mxGeometry x="205" y="530" width="50" height="20" as="geometry" />
        </mxCell>
        <mxCell id="FL63Lk29zHyhv8Zzoz2--25" style="edgeStyle=orthogonalEdgeStyle;rounded=0;orthogonalLoop=1;jettySize=auto;html=1;exitX=1;exitY=0.5;exitDx=0;exitDy=0;entryX=0;entryY=0.5;entryDx=0;entryDy=0;fontSize=12;" edge="1" parent="FL63Lk29zHyhv8Zzoz2--1" source="FL63Lk29zHyhv8Zzoz2--22" target="FL63Lk29zHyhv8Zzoz2--24">
          <mxGeometry relative="1" as="geometry" />
        </mxCell>
        <mxCell id="FL63Lk29zHyhv8Zzoz2--22" value="&lt;b&gt;Add Value to Wins&lt;/b&gt;&lt;br&gt;wins[sum1]++" style="rounded=1;whiteSpace=wrap;html=1;strokeWidth=1;fontSize=12;align=center;" vertex="1" parent="FL63Lk29zHyhv8Zzoz2--1">
          <mxGeometry x="350" y="557.5" width="90" height="65" as="geometry" />
        </mxCell>
        <mxCell id="FL63Lk29zHyhv8Zzoz2--28" style="edgeStyle=orthogonalEdgeStyle;rounded=0;orthogonalLoop=1;jettySize=auto;html=1;exitX=1;exitY=0.5;exitDx=0;exitDy=0;entryX=0;entryY=0.5;entryDx=0;entryDy=0;fontSize=12;" edge="1" parent="FL63Lk29zHyhv8Zzoz2--1" source="FL63Lk29zHyhv8Zzoz2--24" target="FL63Lk29zHyhv8Zzoz2--26">
          <mxGeometry relative="1" as="geometry" />
        </mxCell>
        <mxCell id="FL63Lk29zHyhv8Zzoz2--24" value="thrwAgn=false" style="rounded=1;whiteSpace=wrap;html=1;strokeWidth=1;fontSize=12;align=center;" vertex="1" parent="FL63Lk29zHyhv8Zzoz2--1">
          <mxGeometry x="490" y="557.5" width="90" height="65" as="geometry" />
        </mxCell>
        <mxCell id="FL63Lk29zHyhv8Zzoz2--29" style="edgeStyle=orthogonalEdgeStyle;rounded=0;orthogonalLoop=1;jettySize=auto;html=1;exitX=1;exitY=0.5;exitDx=0;exitDy=0;fontSize=12;entryX=0.5;entryY=0;entryDx=0;entryDy=0;" edge="1" parent="FL63Lk29zHyhv8Zzoz2--1" source="FL63Lk29zHyhv8Zzoz2--26" target="FL63Lk29zHyhv8Zzoz2--6">
          <mxGeometry relative="1" as="geometry">
            <mxPoint x="100" y="450" as="targetPoint" />
          </mxGeometry>
        </mxCell>
        <mxCell id="U2bpjAdwaUuszV5cjsON-2" style="edgeStyle=orthogonalEdgeStyle;rounded=0;orthogonalLoop=1;jettySize=auto;html=1;exitX=0.5;exitY=1;exitDx=0;exitDy=0;entryX=0.5;entryY=0;entryDx=0;entryDy=0;fontSize=12;" edge="1" parent="FL63Lk29zHyhv8Zzoz2--1" source="FL63Lk29zHyhv8Zzoz2--26" target="U2bpjAdwaUuszV5cjsON-1">
          <mxGeometry relative="1" as="geometry" />
        </mxCell>
        <mxCell id="FL63Lk29zHyhv8Zzoz2--26" value="thrwAgn" style="rhombus;whiteSpace=wrap;html=1;strokeWidth=1;fontSize=12;align=center;" vertex="1" parent="FL63Lk29zHyhv8Zzoz2--1">
          <mxGeometry x="630" y="500" width="80" height="80" as="geometry" />
        </mxCell>
        <mxCell id="FL63Lk29zHyhv8Zzoz2--30" value="True" style="text;html=1;align=center;verticalAlign=middle;resizable=0;points=[];autosize=1;fontSize=12;" vertex="1" parent="FL63Lk29zHyhv8Zzoz2--1">
          <mxGeometry x="740" y="470" width="40" height="20" as="geometry" />
        </mxCell>
        <mxCell id="U2bpjAdwaUuszV5cjsON-1" value="Return to Page 3 and Continue For Loop" style="ellipse;whiteSpace=wrap;html=1;aspect=fixed;strokeWidth=1;fontSize=12;align=center;" vertex="1" parent="FL63Lk29zHyhv8Zzoz2--1">
          <mxGeometry x="630" y="622.5" width="80" height="80" as="geometry" />
        </mxCell>
        <mxCell id="BGgFZMG4ankpTqYd0ZJh-0" value="False" style="text;html=1;align=center;verticalAlign=middle;resizable=0;points=[];autosize=1;fontSize=12;" vertex="1" parent="FL63Lk29zHyhv8Zzoz2--1">
          <mxGeometry x="665" y="590" width="50" height="20" as="geometry" />
        </mxCell>
      </root>
    </mxGraphModel>
  </diagram>
  <diagram id="8tiTZwOUX2Sy3oSrbrPC" name="Page-5">
    <mxGraphModel dx="1224" dy="946" grid="1" gridSize="10" guides="1" tooltips="1" connect="1" arrows="1" fold="1" page="1" pageScale="1" pageWidth="850" pageHeight="1100" math="0" shadow="0">
      <root>
        <mxCell id="10ja8m_JadIMMJA_Geqb-0" />
        <mxCell id="10ja8m_JadIMMJA_Geqb-1" parent="10ja8m_JadIMMJA_Geqb-0" />
        <mxCell id="10ja8m_JadIMMJA_Geqb-2" value="&lt;font style=&quot;font-size: 20px&quot;&gt;scrnDsp Function&lt;/font&gt;" style="text;html=1;align=center;verticalAlign=middle;resizable=0;points=[];autosize=1;fontSize=12;" vertex="1" parent="10ja8m_JadIMMJA_Geqb-1">
          <mxGeometry x="340" y="30" width="170" height="20" as="geometry" />
        </mxCell>
        <mxCell id="G0pdI0PX6vLvB7Ezm98F-3" style="edgeStyle=orthogonalEdgeStyle;rounded=0;orthogonalLoop=1;jettySize=auto;html=1;exitX=0.5;exitY=1;exitDx=0;exitDy=0;entryX=0.5;entryY=0;entryDx=0;entryDy=0;fontSize=12;" edge="1" parent="10ja8m_JadIMMJA_Geqb-1" source="10ja8m_JadIMMJA_Geqb-3" target="G0pdI0PX6vLvB7Ezm98F-0">
          <mxGeometry relative="1" as="geometry" />
        </mxCell>
        <mxCell id="10ja8m_JadIMMJA_Geqb-3" value="scrnDsp" style="ellipse;whiteSpace=wrap;html=1;aspect=fixed;strokeWidth=1;fontSize=12;align=center;" vertex="1" parent="10ja8m_JadIMMJA_Geqb-1">
          <mxGeometry x="70" y="80" width="80" height="80" as="geometry" />
        </mxCell>
        <mxCell id="G0pdI0PX6vLvB7Ezm98F-4" style="edgeStyle=orthogonalEdgeStyle;rounded=0;orthogonalLoop=1;jettySize=auto;html=1;exitX=0.5;exitY=1;exitDx=0;exitDy=0;fontSize=12;" edge="1" parent="10ja8m_JadIMMJA_Geqb-1" source="G0pdI0PX6vLvB7Ezm98F-0" target="G0pdI0PX6vLvB7Ezm98F-1">
          <mxGeometry relative="1" as="geometry" />
        </mxCell>
        <mxCell id="G0pdI0PX6vLvB7Ezm98F-0" value="Output Formatting Details" style="shape=parallelogram;perimeter=parallelogramPerimeter;whiteSpace=wrap;html=1;fixedSize=1;strokeWidth=1;fontSize=12;align=center;" vertex="1" parent="10ja8m_JadIMMJA_Geqb-1">
          <mxGeometry x="45" y="180" width="130" height="60" as="geometry" />
        </mxCell>
        <mxCell id="G0pdI0PX6vLvB7Ezm98F-5" style="edgeStyle=orthogonalEdgeStyle;rounded=0;orthogonalLoop=1;jettySize=auto;html=1;exitX=0.5;exitY=1;exitDx=0;exitDy=0;fontSize=12;" edge="1" parent="10ja8m_JadIMMJA_Geqb-1" source="G0pdI0PX6vLvB7Ezm98F-1" target="G0pdI0PX6vLvB7Ezm98F-2">
          <mxGeometry relative="1" as="geometry" />
        </mxCell>
        <mxCell id="G0pdI0PX6vLvB7Ezm98F-1" value="Output # of games&lt;br&gt;nGames" style="shape=parallelogram;perimeter=parallelogramPerimeter;whiteSpace=wrap;html=1;fixedSize=1;strokeWidth=1;fontSize=12;align=center;" vertex="1" parent="10ja8m_JadIMMJA_Geqb-1">
          <mxGeometry x="45" y="270" width="130" height="60" as="geometry" />
        </mxCell>
        <mxCell id="G0pdI0PX6vLvB7Ezm98F-10" style="edgeStyle=orthogonalEdgeStyle;rounded=0;orthogonalLoop=1;jettySize=auto;html=1;exitX=0.5;exitY=1;exitDx=0;exitDy=0;fontSize=12;" edge="1" parent="10ja8m_JadIMMJA_Geqb-1" source="G0pdI0PX6vLvB7Ezm98F-2" target="G0pdI0PX6vLvB7Ezm98F-8">
          <mxGeometry relative="1" as="geometry" />
        </mxCell>
        <mxCell id="G0pdI0PX6vLvB7Ezm98F-2" value="Output Table &lt;br&gt;Headers" style="shape=parallelogram;perimeter=parallelogramPerimeter;whiteSpace=wrap;html=1;fixedSize=1;strokeWidth=1;fontSize=12;align=center;" vertex="1" parent="10ja8m_JadIMMJA_Geqb-1">
          <mxGeometry x="45" y="360" width="130" height="60" as="geometry" />
        </mxCell>
        <mxCell id="cf-8TjyUJaPzJ91k5UhC-14" style="edgeStyle=orthogonalEdgeStyle;rounded=0;orthogonalLoop=1;jettySize=auto;html=1;exitX=1;exitY=0.5;exitDx=0;exitDy=0;entryX=0;entryY=0.5;entryDx=0;entryDy=0;fontSize=12;" edge="1" parent="10ja8m_JadIMMJA_Geqb-1" source="G0pdI0PX6vLvB7Ezm98F-8" target="cf-8TjyUJaPzJ91k5UhC-2">
          <mxGeometry relative="1" as="geometry" />
        </mxCell>
        <mxCell id="G0pdI0PX6vLvB7Ezm98F-8" value="&lt;b&gt;Initialize Variables&lt;/b&gt;&lt;br&gt;sWins=0&lt;br&gt;sLosses=0" style="rounded=1;whiteSpace=wrap;html=1;strokeWidth=1;fontSize=12;align=center;" vertex="1" parent="10ja8m_JadIMMJA_Geqb-1">
          <mxGeometry x="50" y="450" width="120" height="60" as="geometry" />
        </mxCell>
        <mxCell id="G0pdI0PX6vLvB7Ezm98F-9" value="For Loop" style="text;html=1;align=center;verticalAlign=middle;resizable=0;points=[];autosize=1;fontSize=12;" vertex="1" parent="10ja8m_JadIMMJA_Geqb-1">
          <mxGeometry x="190" y="460" width="60" height="20" as="geometry" />
        </mxCell>
        <mxCell id="cf-8TjyUJaPzJ91k5UhC-1" style="edgeStyle=orthogonalEdgeStyle;rounded=0;orthogonalLoop=1;jettySize=auto;html=1;exitX=0.5;exitY=1;exitDx=0;exitDy=0;fontSize=20;" edge="1" parent="10ja8m_JadIMMJA_Geqb-1" source="cf-8TjyUJaPzJ91k5UhC-2" target="cf-8TjyUJaPzJ91k5UhC-4">
          <mxGeometry relative="1" as="geometry" />
        </mxCell>
        <mxCell id="cf-8TjyUJaPzJ91k5UhC-2" value="&lt;font style=&quot;font-size: 12px&quot;&gt;&lt;b&gt;Declare and Initialize in For Loop&lt;/b&gt;&lt;br&gt;sum=2&lt;br&gt;&lt;/font&gt;" style="rounded=1;whiteSpace=wrap;html=1;strokeWidth=1;fontSize=20;align=center;" vertex="1" parent="10ja8m_JadIMMJA_Geqb-1">
          <mxGeometry x="290" y="445" width="150" height="70" as="geometry" />
        </mxCell>
        <mxCell id="cf-8TjyUJaPzJ91k5UhC-3" style="edgeStyle=orthogonalEdgeStyle;rounded=0;orthogonalLoop=1;jettySize=auto;html=1;exitX=1;exitY=0.5;exitDx=0;exitDy=0;entryX=0;entryY=0.5;entryDx=0;entryDy=0;fontSize=20;" edge="1" parent="10ja8m_JadIMMJA_Geqb-1" source="cf-8TjyUJaPzJ91k5UhC-4" target="cf-8TjyUJaPzJ91k5UhC-8">
          <mxGeometry relative="1" as="geometry" />
        </mxCell>
        <mxCell id="cf-8TjyUJaPzJ91k5UhC-21" style="edgeStyle=orthogonalEdgeStyle;rounded=0;orthogonalLoop=1;jettySize=auto;html=1;exitX=0.5;exitY=1;exitDx=0;exitDy=0;entryX=0.5;entryY=0;entryDx=0;entryDy=0;fontSize=12;" edge="1" parent="10ja8m_JadIMMJA_Geqb-1" source="cf-8TjyUJaPzJ91k5UhC-4" target="cf-8TjyUJaPzJ91k5UhC-20">
          <mxGeometry relative="1" as="geometry" />
        </mxCell>
        <mxCell id="cf-8TjyUJaPzJ91k5UhC-4" value="&lt;font size=&quot;1&quot;&gt;sum&amp;lt;SIZE&lt;/font&gt;" style="rhombus;whiteSpace=wrap;html=1;strokeWidth=1;fontSize=20;align=center;" vertex="1" parent="10ja8m_JadIMMJA_Geqb-1">
          <mxGeometry x="310" y="550" width="110" height="90" as="geometry" />
        </mxCell>
        <mxCell id="cf-8TjyUJaPzJ91k5UhC-5" value="&lt;span style=&quot;font-size: 12px&quot;&gt;True&lt;/span&gt;" style="text;html=1;align=center;verticalAlign=middle;resizable=0;points=[];autosize=1;fontSize=20;" vertex="1" parent="10ja8m_JadIMMJA_Geqb-1">
          <mxGeometry x="400" y="555" width="40" height="30" as="geometry" />
        </mxCell>
        <mxCell id="cf-8TjyUJaPzJ91k5UhC-6" value="&lt;font style=&quot;font-size: 12px&quot;&gt;False&lt;/font&gt;" style="text;html=1;align=center;verticalAlign=middle;resizable=0;points=[];autosize=1;fontSize=20;" vertex="1" parent="10ja8m_JadIMMJA_Geqb-1">
          <mxGeometry x="300" y="650" width="50" height="30" as="geometry" />
        </mxCell>
        <mxCell id="cf-8TjyUJaPzJ91k5UhC-7" value="" style="edgeStyle=orthogonalEdgeStyle;rounded=0;orthogonalLoop=1;jettySize=auto;html=1;fontSize=20;" edge="1" parent="10ja8m_JadIMMJA_Geqb-1" source="cf-8TjyUJaPzJ91k5UhC-8" target="cf-8TjyUJaPzJ91k5UhC-9">
          <mxGeometry relative="1" as="geometry" />
        </mxCell>
        <mxCell id="cf-8TjyUJaPzJ91k5UhC-8" value="&lt;font style=&quot;font-size: 12px&quot;&gt;&lt;b&gt;Sum Up Wins&lt;br&gt;&lt;/b&gt;sWins+=wins[sum]&lt;br&gt;&lt;/font&gt;" style="rounded=1;whiteSpace=wrap;html=1;strokeWidth=1;fontSize=20;align=center;" vertex="1" parent="10ja8m_JadIMMJA_Geqb-1">
          <mxGeometry x="485" y="610" width="150" height="55" as="geometry" />
        </mxCell>
        <mxCell id="cf-8TjyUJaPzJ91k5UhC-17" style="edgeStyle=orthogonalEdgeStyle;rounded=0;orthogonalLoop=1;jettySize=auto;html=1;exitX=0.5;exitY=1;exitDx=0;exitDy=0;fontSize=12;" edge="1" parent="10ja8m_JadIMMJA_Geqb-1" source="cf-8TjyUJaPzJ91k5UhC-9" target="cf-8TjyUJaPzJ91k5UhC-16">
          <mxGeometry relative="1" as="geometry" />
        </mxCell>
        <mxCell id="cf-8TjyUJaPzJ91k5UhC-9" value="&lt;font style=&quot;font-size: 12px&quot;&gt;&lt;b&gt;Sum Up Losses&lt;br&gt;&lt;/b&gt;sLosses+=losses[sum]&lt;br&gt;&lt;/font&gt;" style="rounded=1;whiteSpace=wrap;html=1;strokeWidth=1;fontSize=20;align=center;" vertex="1" parent="10ja8m_JadIMMJA_Geqb-1">
          <mxGeometry x="480" y="690" width="160" height="60" as="geometry" />
        </mxCell>
        <mxCell id="cf-8TjyUJaPzJ91k5UhC-18" style="edgeStyle=orthogonalEdgeStyle;rounded=0;orthogonalLoop=1;jettySize=auto;html=1;exitX=0;exitY=0.5;exitDx=0;exitDy=0;entryX=0.5;entryY=0;entryDx=0;entryDy=0;fontSize=12;" edge="1" parent="10ja8m_JadIMMJA_Geqb-1" source="cf-8TjyUJaPzJ91k5UhC-15" target="cf-8TjyUJaPzJ91k5UhC-4">
          <mxGeometry relative="1" as="geometry">
            <Array as="points">
              <mxPoint x="365" y="538" />
            </Array>
          </mxGeometry>
        </mxCell>
        <mxCell id="cf-8TjyUJaPzJ91k5UhC-15" value="&lt;font style=&quot;font-size: 12px&quot;&gt;sum++&lt;br&gt;&lt;/font&gt;" style="rounded=1;whiteSpace=wrap;html=1;strokeWidth=1;fontSize=20;align=center;" vertex="1" parent="10ja8m_JadIMMJA_Geqb-1">
          <mxGeometry x="520" y="520" width="80" height="35" as="geometry" />
        </mxCell>
        <mxCell id="cf-8TjyUJaPzJ91k5UhC-19" style="edgeStyle=orthogonalEdgeStyle;rounded=0;orthogonalLoop=1;jettySize=auto;html=1;exitX=1;exitY=0.5;exitDx=0;exitDy=0;entryX=1;entryY=0.5;entryDx=0;entryDy=0;fontSize=12;" edge="1" parent="10ja8m_JadIMMJA_Geqb-1" source="cf-8TjyUJaPzJ91k5UhC-16" target="cf-8TjyUJaPzJ91k5UhC-15">
          <mxGeometry relative="1" as="geometry">
            <Array as="points">
              <mxPoint x="680" y="810" />
              <mxPoint x="680" y="538" />
            </Array>
          </mxGeometry>
        </mxCell>
        <mxCell id="cf-8TjyUJaPzJ91k5UhC-16" value="&lt;b&gt;Format &amp;amp; Output&amp;nbsp;&lt;/b&gt;&lt;br&gt;wins[sum]&lt;br&gt;losses[sum]" style="shape=parallelogram;perimeter=parallelogramPerimeter;whiteSpace=wrap;html=1;fixedSize=1;strokeWidth=1;fontSize=12;align=center;" vertex="1" parent="10ja8m_JadIMMJA_Geqb-1">
          <mxGeometry x="487.5" y="780" width="145" height="60" as="geometry" />
        </mxCell>
        <mxCell id="cf-8TjyUJaPzJ91k5UhC-23" style="edgeStyle=orthogonalEdgeStyle;rounded=0;orthogonalLoop=1;jettySize=auto;html=1;exitX=0.5;exitY=1;exitDx=0;exitDy=0;entryX=0.5;entryY=0;entryDx=0;entryDy=0;fontSize=12;" edge="1" parent="10ja8m_JadIMMJA_Geqb-1" source="cf-8TjyUJaPzJ91k5UhC-20" target="cf-8TjyUJaPzJ91k5UhC-22">
          <mxGeometry relative="1" as="geometry" />
        </mxCell>
        <mxCell id="cf-8TjyUJaPzJ91k5UhC-20" value="&lt;b&gt;Output&amp;nbsp;&lt;/b&gt;&lt;br&gt;wins+losses" style="shape=parallelogram;perimeter=parallelogramPerimeter;whiteSpace=wrap;html=1;fixedSize=1;strokeWidth=1;fontSize=12;align=center;" vertex="1" parent="10ja8m_JadIMMJA_Geqb-1">
          <mxGeometry x="292.5" y="680" width="145" height="60" as="geometry" />
        </mxCell>
        <mxCell id="cf-8TjyUJaPzJ91k5UhC-22" value="&lt;b&gt;Output&amp;nbsp;&lt;br&gt;&lt;/b&gt;&quot;Percentage Wins&quot;&lt;br&gt;sWins/nGames*PERCENT" style="shape=parallelogram;perimeter=parallelogramPerimeter;whiteSpace=wrap;html=1;fixedSize=1;strokeWidth=1;fontSize=12;align=center;" vertex="1" parent="10ja8m_JadIMMJA_Geqb-1">
          <mxGeometry x="276.25" y="760" width="177.5" height="70" as="geometry" />
        </mxCell>
        <mxCell id="cf-8TjyUJaPzJ91k5UhC-24" value="&lt;b&gt;Output&amp;nbsp;&lt;br&gt;&lt;/b&gt;&quot;Percentage Losses&quot;&lt;br&gt;sLosses/nGames*PERCENT" style="shape=parallelogram;perimeter=parallelogramPerimeter;whiteSpace=wrap;html=1;fixedSize=1;strokeWidth=1;fontSize=12;align=center;" vertex="1" parent="10ja8m_JadIMMJA_Geqb-1">
          <mxGeometry x="276.25" y="850" width="177.5" height="70" as="geometry" />
        </mxCell>
        <mxCell id="cf-8TjyUJaPzJ91k5UhC-25" value="&lt;b&gt;Output&amp;nbsp;&lt;br&gt;&lt;/b&gt;mxThrw" style="shape=parallelogram;perimeter=parallelogramPerimeter;whiteSpace=wrap;html=1;fixedSize=1;strokeWidth=1;fontSize=12;align=center;" vertex="1" parent="10ja8m_JadIMMJA_Geqb-1">
          <mxGeometry x="276.25" y="940" width="177.5" height="50" as="geometry" />
        </mxCell>
        <mxCell id="cf-8TjyUJaPzJ91k5UhC-29" style="edgeStyle=orthogonalEdgeStyle;rounded=0;orthogonalLoop=1;jettySize=auto;html=1;exitX=1;exitY=0.5;exitDx=0;exitDy=0;entryX=0;entryY=0.5;entryDx=0;entryDy=0;fontSize=12;" edge="1" parent="10ja8m_JadIMMJA_Geqb-1" source="cf-8TjyUJaPzJ91k5UhC-27" target="cf-8TjyUJaPzJ91k5UhC-28">
          <mxGeometry relative="1" as="geometry" />
        </mxCell>
        <mxCell id="cf-8TjyUJaPzJ91k5UhC-27" value="&lt;b&gt;Output Ave Throws&lt;br&gt;&lt;/b&gt;numThrw/nGames" style="shape=parallelogram;perimeter=parallelogramPerimeter;whiteSpace=wrap;html=1;fixedSize=1;strokeWidth=1;fontSize=12;align=center;" vertex="1" parent="10ja8m_JadIMMJA_Geqb-1">
          <mxGeometry x="276.25" y="1010" width="177.5" height="50" as="geometry" />
        </mxCell>
        <mxCell id="cf-8TjyUJaPzJ91k5UhC-31" style="edgeStyle=orthogonalEdgeStyle;rounded=0;orthogonalLoop=1;jettySize=auto;html=1;exitX=1;exitY=0.5;exitDx=0;exitDy=0;entryX=0.5;entryY=0;entryDx=0;entryDy=0;fontSize=12;" edge="1" parent="10ja8m_JadIMMJA_Geqb-1" source="cf-8TjyUJaPzJ91k5UhC-28" target="cf-8TjyUJaPzJ91k5UhC-30">
          <mxGeometry relative="1" as="geometry" />
        </mxCell>
        <mxCell id="cf-8TjyUJaPzJ91k5UhC-28" value="&lt;b&gt;Output Ratio of Longest to Shortest Game&lt;br&gt;&lt;/b&gt;log10(mxThrw)" style="shape=parallelogram;perimeter=parallelogramPerimeter;whiteSpace=wrap;html=1;fixedSize=1;strokeWidth=1;fontSize=12;align=center;" vertex="1" parent="10ja8m_JadIMMJA_Geqb-1">
          <mxGeometry x="470" y="1010" width="192.5" height="50" as="geometry" />
        </mxCell>
        <mxCell id="cf-8TjyUJaPzJ91k5UhC-30" value="Return to Main" style="ellipse;whiteSpace=wrap;html=1;aspect=fixed;strokeWidth=1;fontSize=12;align=center;" vertex="1" parent="10ja8m_JadIMMJA_Geqb-1">
          <mxGeometry x="710" y="990" width="80" height="80" as="geometry" />
        </mxCell>
      </root>
    </mxGraphModel>
  </diagram>
  <diagram id="wpHhV8itsAXN13TTQQ8k" name="Page-6">
    <mxGraphModel dx="1020" dy="788" grid="1" gridSize="10" guides="1" tooltips="1" connect="1" arrows="1" fold="1" page="1" pageScale="1" pageWidth="850" pageHeight="1100" math="0" shadow="0">
      <root>
        <mxCell id="e3ePPP_nF1A3CbXqWiRV-0" />
        <mxCell id="e3ePPP_nF1A3CbXqWiRV-1" parent="e3ePPP_nF1A3CbXqWiRV-0" />
        <mxCell id="XIEd6efAq7pOAnFfXUeC-0" value="&lt;font style=&quot;font-size: 20px&quot;&gt;fileDsp Function&lt;/font&gt;" style="text;html=1;align=center;verticalAlign=middle;resizable=0;points=[];autosize=1;fontSize=12;" vertex="1" parent="e3ePPP_nF1A3CbXqWiRV-1">
          <mxGeometry x="345" y="30" width="160" height="20" as="geometry" />
        </mxCell>
        <mxCell id="W00R8xPx_yxi2ELNVgDw-34" style="edgeStyle=orthogonalEdgeStyle;rounded=0;orthogonalLoop=1;jettySize=auto;html=1;exitX=0.5;exitY=1;exitDx=0;exitDy=0;entryX=0.5;entryY=0;entryDx=0;entryDy=0;fontSize=12;" edge="1" parent="e3ePPP_nF1A3CbXqWiRV-1" source="XIEd6efAq7pOAnFfXUeC-2" target="W00R8xPx_yxi2ELNVgDw-1">
          <mxGeometry relative="1" as="geometry" />
        </mxCell>
        <mxCell id="XIEd6efAq7pOAnFfXUeC-2" value="fileDsp Function" style="ellipse;whiteSpace=wrap;html=1;aspect=fixed;strokeWidth=1;fontSize=12;align=center;" vertex="1" parent="e3ePPP_nF1A3CbXqWiRV-1">
          <mxGeometry x="110" y="90" width="80" height="80" as="geometry" />
        </mxCell>
        <mxCell id="W00R8xPx_yxi2ELNVgDw-0" style="edgeStyle=orthogonalEdgeStyle;rounded=0;orthogonalLoop=1;jettySize=auto;html=1;exitX=0.5;exitY=1;exitDx=0;exitDy=0;fontSize=12;" edge="1" parent="e3ePPP_nF1A3CbXqWiRV-1" source="W00R8xPx_yxi2ELNVgDw-1" target="W00R8xPx_yxi2ELNVgDw-3">
          <mxGeometry relative="1" as="geometry" />
        </mxCell>
        <mxCell id="W00R8xPx_yxi2ELNVgDw-1" value="Output Formatting Details" style="shape=parallelogram;perimeter=parallelogramPerimeter;whiteSpace=wrap;html=1;fixedSize=1;strokeWidth=1;fontSize=12;align=center;" vertex="1" parent="e3ePPP_nF1A3CbXqWiRV-1">
          <mxGeometry x="85" y="190" width="130" height="60" as="geometry" />
        </mxCell>
        <mxCell id="W00R8xPx_yxi2ELNVgDw-2" style="edgeStyle=orthogonalEdgeStyle;rounded=0;orthogonalLoop=1;jettySize=auto;html=1;exitX=0.5;exitY=1;exitDx=0;exitDy=0;fontSize=12;" edge="1" parent="e3ePPP_nF1A3CbXqWiRV-1" source="W00R8xPx_yxi2ELNVgDw-3" target="W00R8xPx_yxi2ELNVgDw-5">
          <mxGeometry relative="1" as="geometry" />
        </mxCell>
        <mxCell id="W00R8xPx_yxi2ELNVgDw-3" value="Output # of games&lt;br&gt;nGames" style="shape=parallelogram;perimeter=parallelogramPerimeter;whiteSpace=wrap;html=1;fixedSize=1;strokeWidth=1;fontSize=12;align=center;" vertex="1" parent="e3ePPP_nF1A3CbXqWiRV-1">
          <mxGeometry x="85" y="270" width="130" height="60" as="geometry" />
        </mxCell>
        <mxCell id="W00R8xPx_yxi2ELNVgDw-4" style="edgeStyle=orthogonalEdgeStyle;rounded=0;orthogonalLoop=1;jettySize=auto;html=1;exitX=0.5;exitY=1;exitDx=0;exitDy=0;fontSize=12;" edge="1" parent="e3ePPP_nF1A3CbXqWiRV-1" source="W00R8xPx_yxi2ELNVgDw-5" target="W00R8xPx_yxi2ELNVgDw-7">
          <mxGeometry relative="1" as="geometry" />
        </mxCell>
        <mxCell id="W00R8xPx_yxi2ELNVgDw-5" value="Output Table &lt;br&gt;Headers" style="shape=parallelogram;perimeter=parallelogramPerimeter;whiteSpace=wrap;html=1;fixedSize=1;strokeWidth=1;fontSize=12;align=center;" vertex="1" parent="e3ePPP_nF1A3CbXqWiRV-1">
          <mxGeometry x="80" y="360" width="130" height="60" as="geometry" />
        </mxCell>
        <mxCell id="W00R8xPx_yxi2ELNVgDw-6" style="edgeStyle=orthogonalEdgeStyle;rounded=0;orthogonalLoop=1;jettySize=auto;html=1;exitX=1;exitY=0.5;exitDx=0;exitDy=0;entryX=0;entryY=0.5;entryDx=0;entryDy=0;fontSize=12;" edge="1" parent="e3ePPP_nF1A3CbXqWiRV-1" source="W00R8xPx_yxi2ELNVgDw-7" target="W00R8xPx_yxi2ELNVgDw-10">
          <mxGeometry relative="1" as="geometry" />
        </mxCell>
        <mxCell id="W00R8xPx_yxi2ELNVgDw-7" value="&lt;b&gt;Initialize Variables&lt;/b&gt;&lt;br&gt;sWins=0&lt;br&gt;sLosses=0" style="rounded=1;whiteSpace=wrap;html=1;strokeWidth=1;fontSize=12;align=center;" vertex="1" parent="e3ePPP_nF1A3CbXqWiRV-1">
          <mxGeometry x="85" y="450" width="120" height="60" as="geometry" />
        </mxCell>
        <mxCell id="W00R8xPx_yxi2ELNVgDw-8" value="For Loop" style="text;html=1;align=center;verticalAlign=middle;resizable=0;points=[];autosize=1;fontSize=12;" vertex="1" parent="e3ePPP_nF1A3CbXqWiRV-1">
          <mxGeometry x="225" y="460" width="60" height="20" as="geometry" />
        </mxCell>
        <mxCell id="W00R8xPx_yxi2ELNVgDw-9" style="edgeStyle=orthogonalEdgeStyle;rounded=0;orthogonalLoop=1;jettySize=auto;html=1;exitX=0.5;exitY=1;exitDx=0;exitDy=0;fontSize=20;" edge="1" parent="e3ePPP_nF1A3CbXqWiRV-1" source="W00R8xPx_yxi2ELNVgDw-10" target="W00R8xPx_yxi2ELNVgDw-13">
          <mxGeometry relative="1" as="geometry" />
        </mxCell>
        <mxCell id="W00R8xPx_yxi2ELNVgDw-10" value="&lt;font style=&quot;font-size: 12px&quot;&gt;&lt;b&gt;Declare and Initialize in For Loop&lt;/b&gt;&lt;br&gt;sum=2&lt;br&gt;&lt;/font&gt;" style="rounded=1;whiteSpace=wrap;html=1;strokeWidth=1;fontSize=20;align=center;" vertex="1" parent="e3ePPP_nF1A3CbXqWiRV-1">
          <mxGeometry x="325" y="445" width="150" height="70" as="geometry" />
        </mxCell>
        <mxCell id="W00R8xPx_yxi2ELNVgDw-11" style="edgeStyle=orthogonalEdgeStyle;rounded=0;orthogonalLoop=1;jettySize=auto;html=1;exitX=1;exitY=0.5;exitDx=0;exitDy=0;entryX=0;entryY=0.5;entryDx=0;entryDy=0;fontSize=20;" edge="1" parent="e3ePPP_nF1A3CbXqWiRV-1" source="W00R8xPx_yxi2ELNVgDw-13" target="W00R8xPx_yxi2ELNVgDw-17">
          <mxGeometry relative="1" as="geometry" />
        </mxCell>
        <mxCell id="W00R8xPx_yxi2ELNVgDw-12" style="edgeStyle=orthogonalEdgeStyle;rounded=0;orthogonalLoop=1;jettySize=auto;html=1;exitX=0.5;exitY=1;exitDx=0;exitDy=0;entryX=0.5;entryY=0;entryDx=0;entryDy=0;fontSize=12;" edge="1" parent="e3ePPP_nF1A3CbXqWiRV-1" source="W00R8xPx_yxi2ELNVgDw-13" target="W00R8xPx_yxi2ELNVgDw-25">
          <mxGeometry relative="1" as="geometry" />
        </mxCell>
        <mxCell id="W00R8xPx_yxi2ELNVgDw-13" value="&lt;font size=&quot;1&quot;&gt;sum&amp;lt;SIZE&lt;/font&gt;" style="rhombus;whiteSpace=wrap;html=1;strokeWidth=1;fontSize=20;align=center;" vertex="1" parent="e3ePPP_nF1A3CbXqWiRV-1">
          <mxGeometry x="345" y="550" width="110" height="90" as="geometry" />
        </mxCell>
        <mxCell id="W00R8xPx_yxi2ELNVgDw-14" value="&lt;span style=&quot;font-size: 12px&quot;&gt;True&lt;/span&gt;" style="text;html=1;align=center;verticalAlign=middle;resizable=0;points=[];autosize=1;fontSize=20;" vertex="1" parent="e3ePPP_nF1A3CbXqWiRV-1">
          <mxGeometry x="435" y="555" width="40" height="30" as="geometry" />
        </mxCell>
        <mxCell id="W00R8xPx_yxi2ELNVgDw-15" value="&lt;font style=&quot;font-size: 12px&quot;&gt;False&lt;/font&gt;" style="text;html=1;align=center;verticalAlign=middle;resizable=0;points=[];autosize=1;fontSize=20;" vertex="1" parent="e3ePPP_nF1A3CbXqWiRV-1">
          <mxGeometry x="335" y="650" width="50" height="30" as="geometry" />
        </mxCell>
        <mxCell id="W00R8xPx_yxi2ELNVgDw-16" value="" style="edgeStyle=orthogonalEdgeStyle;rounded=0;orthogonalLoop=1;jettySize=auto;html=1;fontSize=20;" edge="1" parent="e3ePPP_nF1A3CbXqWiRV-1" source="W00R8xPx_yxi2ELNVgDw-17" target="W00R8xPx_yxi2ELNVgDw-19">
          <mxGeometry relative="1" as="geometry" />
        </mxCell>
        <mxCell id="W00R8xPx_yxi2ELNVgDw-17" value="&lt;font style=&quot;font-size: 12px&quot;&gt;&lt;b&gt;Sum Up Wins&lt;br&gt;&lt;/b&gt;sWins+=wins[sum]&lt;br&gt;&lt;/font&gt;" style="rounded=1;whiteSpace=wrap;html=1;strokeWidth=1;fontSize=20;align=center;" vertex="1" parent="e3ePPP_nF1A3CbXqWiRV-1">
          <mxGeometry x="520" y="610" width="150" height="55" as="geometry" />
        </mxCell>
        <mxCell id="W00R8xPx_yxi2ELNVgDw-18" style="edgeStyle=orthogonalEdgeStyle;rounded=0;orthogonalLoop=1;jettySize=auto;html=1;exitX=0.5;exitY=1;exitDx=0;exitDy=0;fontSize=12;" edge="1" parent="e3ePPP_nF1A3CbXqWiRV-1" source="W00R8xPx_yxi2ELNVgDw-19" target="W00R8xPx_yxi2ELNVgDw-23">
          <mxGeometry relative="1" as="geometry" />
        </mxCell>
        <mxCell id="W00R8xPx_yxi2ELNVgDw-19" value="&lt;font style=&quot;font-size: 12px&quot;&gt;&lt;b&gt;Sum Up Losses&lt;br&gt;&lt;/b&gt;sLosses+=losses[sum]&lt;br&gt;&lt;/font&gt;" style="rounded=1;whiteSpace=wrap;html=1;strokeWidth=1;fontSize=20;align=center;" vertex="1" parent="e3ePPP_nF1A3CbXqWiRV-1">
          <mxGeometry x="515" y="690" width="160" height="60" as="geometry" />
        </mxCell>
        <mxCell id="W00R8xPx_yxi2ELNVgDw-20" style="edgeStyle=orthogonalEdgeStyle;rounded=0;orthogonalLoop=1;jettySize=auto;html=1;exitX=0;exitY=0.5;exitDx=0;exitDy=0;entryX=0.5;entryY=0;entryDx=0;entryDy=0;fontSize=12;" edge="1" parent="e3ePPP_nF1A3CbXqWiRV-1" source="W00R8xPx_yxi2ELNVgDw-21" target="W00R8xPx_yxi2ELNVgDw-13">
          <mxGeometry relative="1" as="geometry">
            <Array as="points">
              <mxPoint x="400" y="538" />
            </Array>
          </mxGeometry>
        </mxCell>
        <mxCell id="W00R8xPx_yxi2ELNVgDw-21" value="&lt;font style=&quot;font-size: 12px&quot;&gt;sum++&lt;br&gt;&lt;/font&gt;" style="rounded=1;whiteSpace=wrap;html=1;strokeWidth=1;fontSize=20;align=center;" vertex="1" parent="e3ePPP_nF1A3CbXqWiRV-1">
          <mxGeometry x="555" y="520" width="80" height="35" as="geometry" />
        </mxCell>
        <mxCell id="W00R8xPx_yxi2ELNVgDw-22" style="edgeStyle=orthogonalEdgeStyle;rounded=0;orthogonalLoop=1;jettySize=auto;html=1;exitX=1;exitY=0.5;exitDx=0;exitDy=0;entryX=1;entryY=0.5;entryDx=0;entryDy=0;fontSize=12;" edge="1" parent="e3ePPP_nF1A3CbXqWiRV-1" source="W00R8xPx_yxi2ELNVgDw-23" target="W00R8xPx_yxi2ELNVgDw-21">
          <mxGeometry relative="1" as="geometry">
            <Array as="points">
              <mxPoint x="715" y="810" />
              <mxPoint x="715" y="538" />
            </Array>
          </mxGeometry>
        </mxCell>
        <mxCell id="W00R8xPx_yxi2ELNVgDw-23" value="&lt;b&gt;Format &amp;amp; Output&amp;nbsp;&lt;/b&gt;&lt;br&gt;wins[sum]&lt;br&gt;losses[sum]" style="shape=parallelogram;perimeter=parallelogramPerimeter;whiteSpace=wrap;html=1;fixedSize=1;strokeWidth=1;fontSize=12;align=center;" vertex="1" parent="e3ePPP_nF1A3CbXqWiRV-1">
          <mxGeometry x="522.5" y="780" width="145" height="60" as="geometry" />
        </mxCell>
        <mxCell id="W00R8xPx_yxi2ELNVgDw-24" style="edgeStyle=orthogonalEdgeStyle;rounded=0;orthogonalLoop=1;jettySize=auto;html=1;exitX=0.5;exitY=1;exitDx=0;exitDy=0;entryX=0.5;entryY=0;entryDx=0;entryDy=0;fontSize=12;" edge="1" parent="e3ePPP_nF1A3CbXqWiRV-1" source="W00R8xPx_yxi2ELNVgDw-25" target="W00R8xPx_yxi2ELNVgDw-26">
          <mxGeometry relative="1" as="geometry" />
        </mxCell>
        <mxCell id="W00R8xPx_yxi2ELNVgDw-25" value="&lt;b&gt;Output&amp;nbsp;&lt;/b&gt;&lt;br&gt;wins+losses" style="shape=parallelogram;perimeter=parallelogramPerimeter;whiteSpace=wrap;html=1;fixedSize=1;strokeWidth=1;fontSize=12;align=center;" vertex="1" parent="e3ePPP_nF1A3CbXqWiRV-1">
          <mxGeometry x="327.5" y="680" width="145" height="60" as="geometry" />
        </mxCell>
        <mxCell id="W00R8xPx_yxi2ELNVgDw-26" value="&lt;b&gt;Output&amp;nbsp;&lt;br&gt;&lt;/b&gt;&quot;Percentage Wins&quot;&lt;br&gt;sWins/nGames*PERCENT" style="shape=parallelogram;perimeter=parallelogramPerimeter;whiteSpace=wrap;html=1;fixedSize=1;strokeWidth=1;fontSize=12;align=center;" vertex="1" parent="e3ePPP_nF1A3CbXqWiRV-1">
          <mxGeometry x="311.25" y="760" width="177.5" height="70" as="geometry" />
        </mxCell>
        <mxCell id="W00R8xPx_yxi2ELNVgDw-27" value="&lt;b&gt;Output&amp;nbsp;&lt;br&gt;&lt;/b&gt;&quot;Percentage Losses&quot;&lt;br&gt;sLosses/nGames*PERCENT" style="shape=parallelogram;perimeter=parallelogramPerimeter;whiteSpace=wrap;html=1;fixedSize=1;strokeWidth=1;fontSize=12;align=center;" vertex="1" parent="e3ePPP_nF1A3CbXqWiRV-1">
          <mxGeometry x="311.25" y="850" width="177.5" height="70" as="geometry" />
        </mxCell>
        <mxCell id="W00R8xPx_yxi2ELNVgDw-28" value="&lt;b&gt;Output&amp;nbsp;&lt;br&gt;&lt;/b&gt;mxThrw" style="shape=parallelogram;perimeter=parallelogramPerimeter;whiteSpace=wrap;html=1;fixedSize=1;strokeWidth=1;fontSize=12;align=center;" vertex="1" parent="e3ePPP_nF1A3CbXqWiRV-1">
          <mxGeometry x="311.25" y="940" width="177.5" height="50" as="geometry" />
        </mxCell>
        <mxCell id="W00R8xPx_yxi2ELNVgDw-29" style="edgeStyle=orthogonalEdgeStyle;rounded=0;orthogonalLoop=1;jettySize=auto;html=1;exitX=1;exitY=0.5;exitDx=0;exitDy=0;entryX=0;entryY=0.5;entryDx=0;entryDy=0;fontSize=12;" edge="1" parent="e3ePPP_nF1A3CbXqWiRV-1" source="W00R8xPx_yxi2ELNVgDw-30" target="W00R8xPx_yxi2ELNVgDw-32">
          <mxGeometry relative="1" as="geometry" />
        </mxCell>
        <mxCell id="W00R8xPx_yxi2ELNVgDw-30" value="&lt;b&gt;Output Ave Throws&lt;br&gt;&lt;/b&gt;numThrw/nGames" style="shape=parallelogram;perimeter=parallelogramPerimeter;whiteSpace=wrap;html=1;fixedSize=1;strokeWidth=1;fontSize=12;align=center;" vertex="1" parent="e3ePPP_nF1A3CbXqWiRV-1">
          <mxGeometry x="311.25" y="1010" width="177.5" height="50" as="geometry" />
        </mxCell>
        <mxCell id="W00R8xPx_yxi2ELNVgDw-31" style="edgeStyle=orthogonalEdgeStyle;rounded=0;orthogonalLoop=1;jettySize=auto;html=1;exitX=1;exitY=0.5;exitDx=0;exitDy=0;entryX=0.5;entryY=0;entryDx=0;entryDy=0;fontSize=12;" edge="1" parent="e3ePPP_nF1A3CbXqWiRV-1" source="W00R8xPx_yxi2ELNVgDw-32" target="W00R8xPx_yxi2ELNVgDw-33">
          <mxGeometry relative="1" as="geometry" />
        </mxCell>
        <mxCell id="W00R8xPx_yxi2ELNVgDw-32" value="&lt;b&gt;Output Ratio of Longest to Shortest Game&lt;br&gt;&lt;/b&gt;log10(mxThrw)" style="shape=parallelogram;perimeter=parallelogramPerimeter;whiteSpace=wrap;html=1;fixedSize=1;strokeWidth=1;fontSize=12;align=center;" vertex="1" parent="e3ePPP_nF1A3CbXqWiRV-1">
          <mxGeometry x="505" y="1010" width="192.5" height="50" as="geometry" />
        </mxCell>
        <mxCell id="W00R8xPx_yxi2ELNVgDw-33" value="Return to Main" style="ellipse;whiteSpace=wrap;html=1;aspect=fixed;strokeWidth=1;fontSize=12;align=center;" vertex="1" parent="e3ePPP_nF1A3CbXqWiRV-1">
          <mxGeometry x="745" y="990" width="80" height="80" as="geometry" />
        </mxCell>
      </root>
    </mxGraphModel>
  </diagram>
</mxfile>
